<?xml version="1.0" encoding="UTF-8" standalone="no"?>
<!-- Created with Inkscape (http://www.inkscape.org/) -->

<svg
   width="225.96158mm"
   height="264.43082mm"
   viewBox="0 0 225.96158 264.43081"
   version="1.1"
   id="svg1"
   xml:space="preserve"
   inkscape:version="1.4.2 (ebf0e940d0, 2025-05-08)"
   sodipodi:docname="logo.1.svg"
   xmlns:inkscape="http://www.inkscape.org/namespaces/inkscape"
   xmlns:sodipodi="http://sodipodi.sourceforge.net/DTD/sodipodi-0.dtd"
   xmlns="http://www.w3.org/2000/svg"
   xmlns:svg="http://www.w3.org/2000/svg"><sodipodi:namedview
     id="namedview1"
     pagecolor="#ffffff"
     bordercolor="#666666"
     borderopacity="1.0"
     inkscape:showpageshadow="2"
     inkscape:pageopacity="0.0"
     inkscape:pagecheckerboard="0"
     inkscape:deskcolor="#d1d1d1"
     inkscape:document-units="mm"
     inkscape:zoom="0.81845687"
     inkscape:cx="129.51202"
     inkscape:cy="639.61831"
     inkscape:window-width="2560"
     inkscape:window-height="1368"
     inkscape:window-x="0"
     inkscape:window-y="0"
     inkscape:window-maximized="1"
     inkscape:current-layer="layer3" /><defs
     id="defs1" /><g
     inkscape:groupmode="layer"
     id="layer3"
     inkscape:label="SVG-Snake"
     transform="translate(9.0891481,-8.7908029)"><rect
       style="fill:none;fill-opacity:1;stroke:none;stroke-width:0.964999;stroke-linecap:round;stroke-linejoin:round;stroke-dasharray:none;stroke-dashoffset:5.21575;stroke-opacity:1;paint-order:stroke fill markers"
       id="rect4"
       width="224.99658"
       height="263.46582"
       x="0.48249951"
       y="0.48249951"
       transform="translate(-9.0891481,8.7908029)" /><path
       style="fill:#c07d36;fill-opacity:1;stroke:#000000;stroke-width:2;stroke-linecap:butt;stroke-linejoin:miter;stroke-dasharray:none;stroke-opacity:1"
       d="M 79.810364,69.889013 111.49092,103.5092 c 0.90332,7.2695 2.15859,12.54501 9.05159,18.10317 -1.63789,-6.99837 -3.23272,-15.19374 -3.23272,-15.19374 0,0 2.86828,5.45871 10.34467,16.16355 C 132.4263,103.72057 77.799936,74.427197 79.810364,69.889013 Z"
       id="path5"
       sodipodi:nodetypes="cccccc" /><g
       id="g4"
       transform="translate(3.3727883)"><path
         style="fill:#4a717c;fill-opacity:1;stroke:#000000;stroke-width:4.5;stroke-linecap:butt;stroke-linejoin:round;stroke-dasharray:none;stroke-opacity:1"
         d="m 165.0118,165.95103 c 11.22158,5.90113 31.06467,0.5944 30.09622,-20.11247 27.26463,57.67376 -27.88676,41.37957 -34.37414,41.07363 9.06522,-12.61051 1.81085,-12.77327 4.27792,-20.96116 z"
         id="path4"
         sodipodi:nodetypes="cccc" /><path
         style="display:inline;fill:#4a717c;fill-opacity:1;stroke:#000000;stroke-width:4.5;stroke-linecap:round;stroke-linejoin:round;stroke-dasharray:none;stroke-opacity:1"
         d="m 43.135822,130.30989 c -32.063019,-4.94743 -67.139851,50.49378 -18.468602,70.25664 19.217069,7.80305 33.720905,9.38941 46.061948,10.72885 18.91523,2.05296 25.971832,1.8931 46.628712,-0.20018 18.60188,-1.88504 75.46914,-25.05959 31.56537,-66.57592 -9.03611,-8.54474 -27.60416,-18.38862 -40.99345,-21.60926 C 75.465268,114.87129 60.580657,101.95745 63.275969,84.168508 L 87.39825,103.61112 c 4.92236,1.18845 17.41605,2.60852 20.56564,-1.22587 C 97.296543,97.662451 84.71015,77.027538 75.180654,69.744568 L 129.26337,54.926227 c 24.79635,-6.794052 18.65614,-28.156175 -16.42058,-25.826682 0,0 -11.79631,-9.554636 -28.017932,-11.645764 -44.392398,-5.722619 -60.357226,21.074918 -61.446517,60.215494 -1.625035,21.162384 3.063942,37.682905 19.757481,52.640615 8.4945,7.05413 22.197963,13.72728 35.419837,16.94042 55.731311,14.07132 56.950081,23.85846 3.656327,29.36142 -11.375244,0.81252 -22.750487,-1.9205 -34.125731,-8.19904 5.846659,-13.38986 70.074135,-3.59393 70.781655,0.40514 12.51801,-9.76272 -76.880029,-28.69414 -75.732088,-38.50794 z"
         id="path3"
         sodipodi:nodetypes="csssscccccscsccccccc" /></g><ellipse
       style="fill:#132121;fill-opacity:1;stroke:#162323;stroke-width:1.35362;stroke-linecap:round;stroke-linejoin:round;stroke-dasharray:none;stroke-dashoffset:5.21575;stroke-opacity:1;paint-order:stroke fill markers"
       id="path2"
       cx="39.457256"
       cy="74.890335"
       rx="6.7637267"
       ry="9.6390753"
       inkscape:label="eye"
       transform="rotate(-37.844151)" /><text
       xml:space="preserve"
       style="font-style:normal;font-variant:normal;font-weight:bold;font-stretch:normal;font-size:35.2778px;line-height:1.25;font-family:FreeMono;-inkscape-font-specification:'FreeMono Bold';text-align:center;text-anchor:middle;stroke-width:0.293228"
       x="188.7684"
       y="44.366631"
       id="text3"
       transform="matrix(0.85687518,0.28272371,-0.34725484,1.0524553,0,0)"><tspan
         sodipodi:role="line"
         id="tspan3"
         style="font-style:normal;font-variant:normal;font-weight:bold;font-stretch:normal;font-size:35.2778px;font-family:FreeMono;-inkscape-font-specification:'FreeMono Bold';stroke-width:0.293228"
         x="188.7684"
         y="44.366631">&lt;ili/&gt;</tspan></text><text
       xml:space="preserve"
       style="font-size:52.9167px;line-height:1.25;font-family:'Avenir Next LT Pro';-inkscape-font-specification:'Avenir Next LT Pro';text-align:center;text-anchor:middle;stroke-width:0.965;stroke-dasharray:none"
       x="103.91525"
       y="258.94003"
       id="text4"><tspan
         sodipodi:role="line"
         id="tspan4"
         style="font-style:normal;font-variant:normal;font-weight:normal;font-stretch:normal;font-size:52.9167px;font-family:FreeMono;-inkscape-font-specification:FreeMono;stroke:#252525;stroke-width:0.965;stroke-dasharray:none;stroke-opacity:1"
         x="103.91526"
         y="258.94003">ili2py</tspan></text></g></svg>
