<?xml version="1.0" encoding="us-ascii" standalone="no"?><svg xmlns="http://www.w3.org/2000/svg" xmlns:xlink="http://www.w3.org/1999/xlink" contentStyleType="text/css" height="2669px" preserveAspectRatio="none" style="width:3773px;height:2669px;background:#FFFFFF;" version="1.1" viewBox="0 0 3773 2669" width="3773px" zoomAndPan="magnify"><defs/><g><!--cluster INTERLIS--><g id="cluster_INTERLIS"><path d="M178,1737.602 L241,1737.602 A3.75,3.75 0 0 1 243.5,1740.102 L250.5,1762.6699 L2559.5,1762.6699 A2.5,2.5 0 0 1 2562,1765.1699 L2562,2660.102 A2.5,2.5 0 0 1 2559.5,2662.602 L178,2662.602 A2.5,2.5 0 0 1 175.5,2660.102 L175.5,1740.102 A2.5,2.5 0 0 1 178,1737.602 " fill="none" style="stroke:#000000;stroke-width:1.5;"/><line style="stroke:#000000;stroke-width:1.5;" x1="175.5" x2="250.5" y1="1762.6699" y2="1762.6699"/><text fill="#000000" font-family="sans-serif" font-size="14" font-weight="bold" lengthAdjust="spacing" textLength="62" x="179.5" y="1754.5679">INTERLIS</text></g><!--cluster TIMESYSTEMS--><g id="cluster_TIMESYSTEMS"><path d="M425.5,2453.602 L522.5,2453.602 A3.75,3.75 0 0 1 525,2456.102 L532,2478.6699 L587.5,2478.6699 A2.5,2.5 0 0 1 590,2481.1699 L590,2636.102 A2.5,2.5 0 0 1 587.5,2638.602 L425.5,2638.602 A2.5,2.5 0 0 1 423,2636.102 L423,2456.102 A2.5,2.5 0 0 1 425.5,2453.602 " fill="none" style="stroke:#000000;stroke-width:1.5;"/><line style="stroke:#000000;stroke-width:1.5;" x1="423" x2="532" y1="2478.6699" y2="2478.6699"/><text fill="#000000" font-family="sans-serif" font-size="14" font-weight="bold" lengthAdjust="spacing" textLength="96" x="427" y="2470.5679">TIMESYSTEMS</text></g><!--cluster CoordSys--><g id="cluster_CoordSys"><path d="M1482.5,970.602 L1548.5,970.602 A3.75,3.75 0 0 1 1551,973.102 L1558,995.6699 L3314.5,995.6699 A2.5,2.5 0 0 1 3317,998.1699 L3317,1711.102 A2.5,2.5 0 0 1 3314.5,1713.602 L1482.5,1713.602 A2.5,2.5 0 0 1 1480,1711.102 L1480,973.102 A2.5,2.5 0 0 1 1482.5,970.602 " fill="none" style="stroke:#000000;stroke-width:1.5;"/><line style="stroke:#000000;stroke-width:1.5;" x1="1480" x2="1558" y1="995.6699" y2="995.6699"/><text fill="#000000" font-family="sans-serif" font-size="14" font-weight="bold" lengthAdjust="spacing" textLength="65" x="1484" y="987.5679">CoordSys</text></g><!--cluster CoordsysTopic--><g id="cluster_CoordsysTopic"><path d="M1506.5,1130.602 L1608.5,1130.602 A3.75,3.75 0 0 1 1611,1133.102 L1618,1155.6699 L3290.5,1155.6699 A2.5,2.5 0 0 1 3293,1158.1699 L3293,1687.102 A2.5,2.5 0 0 1 3290.5,1689.602 L1506.5,1689.602 A2.5,2.5 0 0 1 1504,1687.102 L1504,1133.102 A2.5,2.5 0 0 1 1506.5,1130.602 " fill="none" style="stroke:#000000;stroke-width:1.5;"/><line style="stroke:#000000;stroke-width:1.5;" x1="1504" x2="1618" y1="1155.6699" y2="1155.6699"/><text fill="#000000" font-family="sans-serif" font-size="14" font-weight="bold" lengthAdjust="spacing" textLength="101" x="1508" y="1147.5679">CoordsysTopic</text></g><!--cluster GeometryCHLV03_V1--><g id="cluster_GeometryCHLV03_V1"><path d="M321,450.602 L467,450.602 A3.75,3.75 0 0 1 469.5,453.102 L476.5,475.6699 L1453.5,475.6699 A2.5,2.5 0 0 1 1456,478.1699 L1456,774.102 A2.5,2.5 0 0 1 1453.5,776.602 L321,776.602 A2.5,2.5 0 0 1 318.5,774.102 L318.5,453.102 A2.5,2.5 0 0 1 321,450.602 " fill="none" style="stroke:#000000;stroke-width:1.5;"/><line style="stroke:#000000;stroke-width:1.5;" x1="318.5" x2="476.5" y1="475.6699" y2="475.6699"/><text fill="#000000" font-family="sans-serif" font-size="14" font-weight="bold" lengthAdjust="spacing" textLength="145" x="322.5" y="467.5679">GeometryCHLV03_V1</text></g><!--cluster GeometryCHLV95_V1--><g id="cluster_GeometryCHLV95_V1"><path d="M2818.5,1777.602 L2964.5,1777.602 A3.75,3.75 0 0 1 2967,1780.102 L2974,1802.6699 L3763.5,1802.6699 A2.5,2.5 0 0 1 3766,1805.1699 L3766,2101.102 A2.5,2.5 0 0 1 3763.5,2103.602 L2818.5,2103.602 A2.5,2.5 0 0 1 2816,2101.102 L2816,1780.102 A2.5,2.5 0 0 1 2818.5,1777.602 " fill="none" style="stroke:#000000;stroke-width:1.5;"/><line style="stroke:#000000;stroke-width:1.5;" x1="2816" x2="2974" y1="1802.6699" y2="1802.6699"/><text fill="#000000" font-family="sans-serif" font-size="14" font-weight="bold" lengthAdjust="spacing" textLength="145" x="2820" y="1794.5679">GeometryCHLV95_V1</text></g><!--cluster SO_AFU_ABBAUSTELLEN_Publikation_20221103--><g id="cluster_SO_AFU_ABBAUSTELLEN_Publikation_20221103"><path d="M8.5,6.602 L333.5,6.602 A3.75,3.75 0 0 1 336,9.102 L343,31.6699 L1004.5,31.6699 A2.5,2.5 0 0 1 1007,34.1699 L1007,424.102 A2.5,2.5 0 0 1 1004.5,426.602 L8.5,426.602 A2.5,2.5 0 0 1 6,424.102 L6,9.102 A2.5,2.5 0 0 1 8.5,6.602 " fill="none" style="stroke:#000000;stroke-width:1.5;"/><line style="stroke:#000000;stroke-width:1.5;" x1="6" x2="343" y1="31.6699" y2="31.6699"/><text fill="#000000" font-family="sans-serif" font-size="14" font-weight="bold" lengthAdjust="spacing" textLength="324" x="10" y="23.5679">SO_AFU_ABBAUSTELLEN_Publikation_20221103</text></g><!--cluster Abbaustelle--><g id="cluster_Abbaustelle"><path d="M32.5,52.602 L115.5,52.602 A3.75,3.75 0 0 1 118,55.102 L125,77.6699 L980.5,77.6699 A2.5,2.5 0 0 1 983,80.1699 L983,400.102 A2.5,2.5 0 0 1 980.5,402.602 L32.5,402.602 A2.5,2.5 0 0 1 30,400.102 L30,55.102 A2.5,2.5 0 0 1 32.5,52.602 " fill="none" style="stroke:#000000;stroke-width:1.5;"/><line style="stroke:#000000;stroke-width:1.5;" x1="30" x2="125" y1="77.6699" y2="77.6699"/><text fill="#000000" font-family="sans-serif" font-size="14" font-weight="bold" lengthAdjust="spacing" textLength="82" x="34" y="69.5679">Abbaustelle</text></g><!--class ANYCLASS--><g id="elem_ANYCLASS"><rect codeLine="2" fill="#F1F1F1" height="48" id="ANYCLASS" rx="2.5" ry="2.5" style="stroke:#181818;stroke-width:0.5;" width="101" x="456" y="2389.602"/><ellipse cx="471" cy="2405.602" fill="#ADD1B2" rx="11" ry="11" style="stroke:#181818;stroke-width:1.0;"/><path d="M470.4688,2412.5239 Q468.7188,2412.5239 467.5781,2411.7895 Q466.4531,2411.0395 465.8906,2409.6957 Q465.3438,2408.3364 465.3438,2406.5395 Q465.3438,2404.5082 466,2403.0551 Q466.6563,2401.602 467.9375,2400.8207 Q469.2188,2400.0395 471.0938,2400.0395 Q471.9844,2400.0395 472.6563,2400.227 Q473.3281,2400.3989 474.0156,2400.7426 L473.2031,2402.7582 Q472.5781,2402.4457 472.0313,2402.3207 Q471.5,2402.1957 471.0156,2402.1957 Q469.8438,2402.1957 469.1406,2402.727 Q468.4375,2403.2582 468.1406,2404.2114 Q467.8438,2405.1645 467.8438,2406.4301 Q467.8438,2408.4457 468.5625,2409.4145 Q469.2813,2410.3676 470.875,2410.3676 Q471.4688,2410.3676 472.0938,2410.2114 Q472.7188,2410.0551 473.5469,2409.6801 L473.5469,2411.8989 Q472.8125,2412.2114 472.0156,2412.3676 Q471.2344,2412.5239 470.4688,2412.5239 Z " fill="#000000"/><text fill="#000000" font-family="sans-serif" font-size="14" lengthAdjust="spacing" textLength="69" x="485" y="2411.034">ANYCLASS</text><line style="stroke:#181818;stroke-width:0.5;" x1="457" x2="556" y1="2421.602" y2="2421.602"/><line style="stroke:#181818;stroke-width:0.5;" x1="457" x2="556" y1="2429.602" y2="2429.602"/></g><!--class ANYSTRUCTURE--><g id="elem_ANYSTRUCTURE"><rect codeLine="5" fill="#F1F1F1" height="48" id="ANYSTRUCTURE" rx="2.5" ry="2.5" style="stroke:#181818;stroke-width:0.5;" width="139" x="437" y="2306.602"/><ellipse cx="452" cy="2322.602" fill="#ADD1B2" rx="11" ry="11" style="stroke:#181818;stroke-width:1.0;"/><path d="M451.4688,2329.5239 Q449.7188,2329.5239 448.5781,2328.7895 Q447.4531,2328.0395 446.8906,2326.6957 Q446.3438,2325.3364 446.3438,2323.5395 Q446.3438,2321.5082 447,2320.0551 Q447.6563,2318.602 448.9375,2317.8207 Q450.2188,2317.0395 452.0938,2317.0395 Q452.9844,2317.0395 453.6563,2317.227 Q454.3281,2317.3989 455.0156,2317.7426 L454.2031,2319.7582 Q453.5781,2319.4457 453.0313,2319.3207 Q452.5,2319.1957 452.0156,2319.1957 Q450.8438,2319.1957 450.1406,2319.727 Q449.4375,2320.2582 449.1406,2321.2114 Q448.8438,2322.1645 448.8438,2323.4301 Q448.8438,2325.4457 449.5625,2326.4145 Q450.2813,2327.3676 451.875,2327.3676 Q452.4688,2327.3676 453.0938,2327.2114 Q453.7188,2327.0551 454.5469,2326.6801 L454.5469,2328.8989 Q453.8125,2329.2114 453.0156,2329.3676 Q452.2344,2329.5239 451.4688,2329.5239 Z " fill="#000000"/><text fill="#000000" font-family="sans-serif" font-size="14" lengthAdjust="spacing" textLength="107" x="466" y="2328.034">ANYSTRUCTURE</text><line style="stroke:#181818;stroke-width:0.5;" x1="438" x2="575" y1="2338.602" y2="2338.602"/><line style="stroke:#181818;stroke-width:0.5;" x1="438" x2="575" y1="2346.602" y2="2346.602"/></g><!--class METAOBJECT--><g id="elem_METAOBJECT"><rect codeLine="8" fill="#F1F1F1" height="67.0679" id="METAOBJECT" rx="2.5" ry="2.5" style="stroke:#181818;stroke-width:0.5;" width="302" x="355.5" y="2204.072"/><ellipse cx="463.25" cy="2220.072" fill="#A9DCDF" rx="11" ry="11" style="stroke:#181818;stroke-width:1.0;"/><path d="M458.4219,2225.822 L461.7656,2213.6345 L464.9063,2213.6345 L468.2813,2225.822 L465.8125,2225.822 L465.0781,2222.8064 L461.5625,2222.8064 L460.8125,2225.822 L458.4219,2225.822 Z M462.8281,2217.7751 L462.0781,2220.7751 L464.5938,2220.7751 L463.875,2217.7751 Q463.7344,2217.197 463.6094,2216.6501 Q463.4844,2216.0876 463.3438,2215.5095 Q463.2344,2216.0876 463.0938,2216.6501 Q462.9531,2217.197 462.8281,2217.7751 Z " fill="#000000"/><text fill="#000000" font-family="sans-serif" font-size="14" font-style="italic" lengthAdjust="spacing" textLength="78" x="483.75" y="2225.504">METAOBJECT</text><line style="stroke:#181818;stroke-width:0.5;" x1="356.5" x2="656.5" y1="2236.072" y2="2236.072"/><text fill="#000000" font-family="sans-serif" font-size="14" lengthAdjust="spacing" textLength="290" x="361.5" y="2255.0379">Name : INTERLIS_METAOBJECT_Name_TYPE</text><line style="stroke:#181818;stroke-width:0.5;" x1="356.5" x2="656.5" y1="2263.1399" y2="2263.1399"/></g><!--class METAOBJECT_TRANSLATION--><g id="elem_METAOBJECT_TRANSLATION"><rect codeLine="12" fill="#F1F1F1" height="86.1358" id="METAOBJECT_TRANSLATION" rx="2.5" ry="2.5" style="stroke:#181818;stroke-width:0.5;" width="630" x="191.5" y="2082.532"/><ellipse cx="416.75" cy="2098.532" fill="#A9DCDF" rx="11" ry="11" style="stroke:#181818;stroke-width:1.0;"/><path d="M411.9219,2104.282 L415.2656,2092.0945 L418.4063,2092.0945 L421.7813,2104.282 L419.3125,2104.282 L418.5781,2101.2664 L415.0625,2101.2664 L414.3125,2104.282 L411.9219,2104.282 Z M416.3281,2096.2351 L415.5781,2099.2351 L418.0938,2099.2351 L417.375,2096.2351 Q417.2344,2095.657 417.1094,2095.1101 Q416.9844,2094.5476 416.8438,2093.9695 Q416.7344,2094.5476 416.5938,2095.1101 Q416.4531,2095.657 416.3281,2096.2351 Z " fill="#000000"/><text fill="#000000" font-family="sans-serif" font-size="14" font-style="italic" lengthAdjust="spacing" textLength="171" x="437.25" y="2103.964">METAOBJECT_TRANSLATION</text><line style="stroke:#181818;stroke-width:0.5;" x1="192.5" x2="820.5" y1="2114.532" y2="2114.532"/><text fill="#000000" font-family="sans-serif" font-size="14" lengthAdjust="spacing" textLength="392" x="197.5" y="2133.4979">Name : INTERLIS_METAOBJECT_TRANSLATION_Name_TYPE</text><text fill="#000000" font-family="sans-serif" font-size="14" lengthAdjust="spacing" textLength="618" x="197.5" y="2152.5658">NameInBaseLanguage : INTERLIS_METAOBJECT_TRANSLATION_NameInBaseLanguage_TYPE</text><line style="stroke:#181818;stroke-width:0.5;" x1="192.5" x2="820.5" y1="2160.6678" y2="2160.6678"/></g><!--class AXIS--><g id="elem_AXIS"><rect codeLine="17" fill="#F1F1F1" height="48" id="AXIS" rx="2.5" ry="2.5" style="stroke:#181818;stroke-width:0.5;" width="62" x="475.5" y="1858.602"/><ellipse cx="490.5" cy="1874.602" fill="#ADD1B2" rx="11" ry="11" style="stroke:#181818;stroke-width:1.0;"/><path d="M489.9688,1881.5239 Q488.2188,1881.5239 487.0781,1880.7895 Q485.9531,1880.0395 485.3906,1878.6957 Q484.8438,1877.3364 484.8438,1875.5395 Q484.8438,1873.5082 485.5,1872.0551 Q486.1563,1870.602 487.4375,1869.8207 Q488.7188,1869.0395 490.5938,1869.0395 Q491.4844,1869.0395 492.1563,1869.227 Q492.8281,1869.3989 493.5156,1869.7426 L492.7031,1871.7582 Q492.0781,1871.4457 491.5313,1871.3207 Q491,1871.1957 490.5156,1871.1957 Q489.3438,1871.1957 488.6406,1871.727 Q487.9375,1872.2582 487.6406,1873.2114 Q487.3438,1874.1645 487.3438,1875.4301 Q487.3438,1877.4457 488.0625,1878.4145 Q488.7813,1879.3676 490.375,1879.3676 Q490.9688,1879.3676 491.5938,1879.2114 Q492.2188,1879.0551 493.0469,1878.6801 L493.0469,1880.8989 Q492.3125,1881.2114 491.5156,1881.3676 Q490.7344,1881.5239 489.9688,1881.5239 Z " fill="#000000"/><text fill="#000000" font-family="sans-serif" font-size="14" lengthAdjust="spacing" textLength="30" x="504.5" y="1880.034">AXIS</text><line style="stroke:#181818;stroke-width:0.5;" x1="476.5" x2="536.5" y1="1890.602" y2="1890.602"/><line style="stroke:#181818;stroke-width:0.5;" x1="476.5" x2="536.5" y1="1898.602" y2="1898.602"/></g><!--class REFSYSTEM--><g id="elem_REFSYSTEM"><rect codeLine="20" fill="#F1F1F1" height="48" id="REFSYSTEM" rx="2.5" ry="2.5" style="stroke:#181818;stroke-width:0.5;" width="101" x="456" y="1775.602"/><ellipse cx="471" cy="1791.602" fill="#A9DCDF" rx="11" ry="11" style="stroke:#181818;stroke-width:1.0;"/><path d="M466.1719,1797.352 L469.5156,1785.1645 L472.6563,1785.1645 L476.0313,1797.352 L473.5625,1797.352 L472.8281,1794.3364 L469.3125,1794.3364 L468.5625,1797.352 L466.1719,1797.352 Z M470.5781,1789.3051 L469.8281,1792.3051 L472.3438,1792.3051 L471.625,1789.3051 Q471.4844,1788.727 471.3594,1788.1801 Q471.2344,1787.6176 471.0938,1787.0395 Q470.9844,1787.6176 470.8438,1788.1801 Q470.7031,1788.727 470.5781,1789.3051 Z " fill="#000000"/><text fill="#000000" font-family="sans-serif" font-size="14" font-style="italic" lengthAdjust="spacing" textLength="69" x="485" y="1797.034">REFSYSTEM</text><line style="stroke:#181818;stroke-width:0.5;" x1="457" x2="556" y1="1807.602" y2="1807.602"/><line style="stroke:#181818;stroke-width:0.5;" x1="457" x2="556" y1="1815.602" y2="1815.602"/></g><!--class COORDSYSTEM--><g id="elem_COORDSYSTEM"><rect codeLine="23" fill="#F1F1F1" height="67.0679" id="COORDSYSTEM" rx="2.5" ry="2.5" style="stroke:#181818;stroke-width:0.5;" width="292" x="1087.5" y="1776.072"/><ellipse cx="1183.25" cy="1792.072" fill="#A9DCDF" rx="11" ry="11" style="stroke:#181818;stroke-width:1.0;"/><path d="M1178.4219,1797.822 L1181.7656,1785.6345 L1184.9063,1785.6345 L1188.2813,1797.822 L1185.8125,1797.822 L1185.0781,1794.8064 L1181.5625,1794.8064 L1180.8125,1797.822 L1178.4219,1797.822 Z M1182.8281,1789.7751 L1182.0781,1792.7751 L1184.5938,1792.7751 L1183.875,1789.7751 Q1183.7344,1789.197 1183.6094,1788.6501 Q1183.4844,1788.0876 1183.3438,1787.5095 Q1183.2344,1788.0876 1183.0938,1788.6501 Q1182.9531,1789.197 1182.8281,1789.7751 Z " fill="#000000"/><text fill="#000000" font-family="sans-serif" font-size="14" font-style="italic" lengthAdjust="spacing" textLength="92" x="1203.75" y="1797.504">COORDSYSTEM</text><line style="stroke:#181818;stroke-width:0.5;" x1="1088.5" x2="1378.5" y1="1808.072" y2="1808.072"/><text fill="#000000" font-family="sans-serif" font-size="14" lengthAdjust="spacing" textLength="280" x="1093.5" y="1827.0379">Axis : INTERLIS_COORDSYSTEM_Axis_TYPE</text><line style="stroke:#181818;stroke-width:0.5;" x1="1088.5" x2="1378.5" y1="1835.1399" y2="1835.1399"/></g><!--class SCALSYSTEM--><g id="elem_SCALSYSTEM"><rect codeLine="28" fill="#F1F1F1" height="48" id="SCALSYSTEM" rx="2.5" ry="2.5" style="stroke:#181818;stroke-width:0.5;" width="109" x="1179" y="2389.602"/><ellipse cx="1194" cy="2405.602" fill="#A9DCDF" rx="11" ry="11" style="stroke:#181818;stroke-width:1.0;"/><path d="M1189.1719,2411.352 L1192.5156,2399.1645 L1195.6563,2399.1645 L1199.0313,2411.352 L1196.5625,2411.352 L1195.8281,2408.3364 L1192.3125,2408.3364 L1191.5625,2411.352 L1189.1719,2411.352 Z M1193.5781,2403.3051 L1192.8281,2406.3051 L1195.3438,2406.3051 L1194.625,2403.3051 Q1194.4844,2402.727 1194.3594,2402.1801 Q1194.2344,2401.6176 1194.0938,2401.0395 Q1193.9844,2401.6176 1193.8438,2402.1801 Q1193.7031,2402.727 1193.5781,2403.3051 Z " fill="#000000"/><text fill="#000000" font-family="sans-serif" font-size="14" font-style="italic" lengthAdjust="spacing" textLength="77" x="1208" y="2411.034">SCALSYSTEM</text><line style="stroke:#181818;stroke-width:0.5;" x1="1180" x2="1287" y1="2421.602" y2="2421.602"/><line style="stroke:#181818;stroke-width:0.5;" x1="1180" x2="1287" y1="2429.602" y2="2429.602"/></g><!--class SIGN--><g id="elem_SIGN"><rect codeLine="31" fill="#F1F1F1" height="48" id="SIGN" rx="2.5" ry="2.5" style="stroke:#181818;stroke-width:0.5;" width="63" x="1202" y="2306.602"/><ellipse cx="1217" cy="2322.602" fill="#A9DCDF" rx="11" ry="11" style="stroke:#181818;stroke-width:1.0;"/><path d="M1212.1719,2328.352 L1215.5156,2316.1645 L1218.6563,2316.1645 L1222.0313,2328.352 L1219.5625,2328.352 L1218.8281,2325.3364 L1215.3125,2325.3364 L1214.5625,2328.352 L1212.1719,2328.352 Z M1216.5781,2320.3051 L1215.8281,2323.3051 L1218.3438,2323.3051 L1217.625,2320.3051 Q1217.4844,2319.727 1217.3594,2319.1801 Q1217.2344,2318.6176 1217.0938,2318.0395 Q1216.9844,2318.6176 1216.8438,2319.1801 Q1216.7031,2319.727 1216.5781,2320.3051 Z " fill="#000000"/><text fill="#000000" font-family="sans-serif" font-size="14" font-style="italic" lengthAdjust="spacing" textLength="31" x="1231" y="2328.034">SIGN</text><line style="stroke:#181818;stroke-width:0.5;" x1="1203" x2="1264" y1="2338.602" y2="2338.602"/><line style="stroke:#181818;stroke-width:0.5;" x1="1203" x2="1264" y1="2346.602" y2="2346.602"/></g><!--class TimeOfDay--><g id="elem_TimeOfDay"><rect codeLine="40" fill="#F1F1F1" height="105.2038" id="TimeOfDay" rx="2.5" ry="2.5" style="stroke:#181818;stroke-width:0.5;" width="321" x="1073" y="2166.002"/><ellipse cx="1195.25" cy="2182.002" fill="#A9DCDF" rx="11" ry="11" style="stroke:#181818;stroke-width:1.0;"/><path d="M1190.4219,2187.752 L1193.7656,2175.5645 L1196.9063,2175.5645 L1200.2813,2187.752 L1197.8125,2187.752 L1197.0781,2184.7364 L1193.5625,2184.7364 L1192.8125,2187.752 L1190.4219,2187.752 Z M1194.8281,2179.7051 L1194.0781,2182.7051 L1196.5938,2182.7051 L1195.875,2179.7051 Q1195.7344,2179.127 1195.6094,2178.5801 Q1195.4844,2178.0176 1195.3438,2177.4395 Q1195.2344,2178.0176 1195.0938,2178.5801 Q1194.9531,2179.127 1194.8281,2179.7051 Z " fill="#000000"/><text fill="#000000" font-family="sans-serif" font-size="14" font-style="italic" lengthAdjust="spacing" textLength="68" x="1215.75" y="2187.434">TimeOfDay</text><line style="stroke:#181818;stroke-width:0.5;" x1="1074" x2="1393" y1="2198.002" y2="2198.002"/><text fill="#000000" font-family="sans-serif" font-size="14" lengthAdjust="spacing" textLength="277" x="1079" y="2216.9679">Hours : INTERLIS_TimeOfDay_Hours_TYPE</text><text fill="#000000" font-family="sans-serif" font-size="14" lengthAdjust="spacing" textLength="307" x="1079" y="2236.0358">Minutes : INTERLIS_TimeOfDay_Minutes_TYPE</text><text fill="#000000" font-family="sans-serif" font-size="14" lengthAdjust="spacing" textLength="309" x="1079" y="2255.1038">Seconds : INTERLIS_TimeOfDay_Seconds_TYPE</text><line style="stroke:#181818;stroke-width:0.5;" x1="1074" x2="1393" y1="2263.2057" y2="2263.2057"/></g><!--class UTC--><g id="elem_UTC"><rect codeLine="46" fill="#F1F1F1" height="48" id="UTC" rx="2.5" ry="2.5" style="stroke:#181818;stroke-width:0.5;" width="59" x="1204" y="2082.602"/><ellipse cx="1219" cy="2098.602" fill="#ADD1B2" rx="11" ry="11" style="stroke:#181818;stroke-width:1.0;"/><path d="M1218.4688,2105.5239 Q1216.7188,2105.5239 1215.5781,2104.7895 Q1214.4531,2104.0395 1213.8906,2102.6957 Q1213.3438,2101.3364 1213.3438,2099.5395 Q1213.3438,2097.5082 1214,2096.0551 Q1214.6563,2094.602 1215.9375,2093.8207 Q1217.2188,2093.0395 1219.0938,2093.0395 Q1219.9844,2093.0395 1220.6563,2093.227 Q1221.3281,2093.3989 1222.0156,2093.7426 L1221.2031,2095.7582 Q1220.5781,2095.4457 1220.0313,2095.3207 Q1219.5,2095.1957 1219.0156,2095.1957 Q1217.8438,2095.1957 1217.1406,2095.727 Q1216.4375,2096.2582 1216.1406,2097.2114 Q1215.8438,2098.1645 1215.8438,2099.4301 Q1215.8438,2101.4457 1216.5625,2102.4145 Q1217.2813,2103.3676 1218.875,2103.3676 Q1219.4688,2103.3676 1220.0938,2103.2114 Q1220.7188,2103.0551 1221.5469,2102.6801 L1221.5469,2104.8989 Q1220.8125,2105.2114 1220.0156,2105.3676 Q1219.2344,2105.5239 1218.4688,2105.5239 Z " fill="#000000"/><text fill="#000000" font-family="sans-serif" font-size="14" lengthAdjust="spacing" textLength="27" x="1233" y="2104.034">UTC</text><line style="stroke:#181818;stroke-width:0.5;" x1="1205" x2="1262" y1="2114.602" y2="2114.602"/><line style="stroke:#181818;stroke-width:0.5;" x1="1205" x2="1262" y1="2122.602" y2="2122.602"/></g><!--class GregorianDate--><g id="elem_GregorianDate"><rect codeLine="49" fill="#F1F1F1" height="105.2038" id="GregorianDate" rx="2.5" ry="2.5" style="stroke:#181818;stroke-width:0.5;" width="322" x="345.5" y="1942.002"/><ellipse cx="452.75" cy="1958.002" fill="#ADD1B2" rx="11" ry="11" style="stroke:#181818;stroke-width:1.0;"/><path d="M452.2188,1964.9239 Q450.4688,1964.9239 449.3281,1964.1895 Q448.2031,1963.4395 447.6406,1962.0957 Q447.0938,1960.7364 447.0938,1958.9395 Q447.0938,1956.9082 447.75,1955.4551 Q448.4063,1954.002 449.6875,1953.2207 Q450.9688,1952.4395 452.8438,1952.4395 Q453.7344,1952.4395 454.4063,1952.627 Q455.0781,1952.7989 455.7656,1953.1426 L454.9531,1955.1582 Q454.3281,1954.8457 453.7813,1954.7207 Q453.25,1954.5957 452.7656,1954.5957 Q451.5938,1954.5957 450.8906,1955.127 Q450.1875,1955.6582 449.8906,1956.6114 Q449.5938,1957.5645 449.5938,1958.8301 Q449.5938,1960.8457 450.3125,1961.8145 Q451.0313,1962.7676 452.625,1962.7676 Q453.2188,1962.7676 453.8438,1962.6114 Q454.4688,1962.4551 455.2969,1962.0801 L455.2969,1964.2989 Q454.5625,1964.6114 453.7656,1964.7676 Q452.9844,1964.9239 452.2188,1964.9239 Z " fill="#000000"/><text fill="#000000" font-family="sans-serif" font-size="14" lengthAdjust="spacing" textLength="99" x="473.25" y="1963.434">GregorianDate</text><line style="stroke:#181818;stroke-width:0.5;" x1="346.5" x2="666.5" y1="1974.002" y2="1974.002"/><text fill="#000000" font-family="sans-serif" font-size="14" lengthAdjust="spacing" textLength="207" x="351.5" y="1992.9679">Year : INTERLIS_GregorianYear</text><text fill="#000000" font-family="sans-serif" font-size="14" lengthAdjust="spacing" textLength="310" x="351.5" y="2012.0358">Month : INTERLIS_GregorianDate_Month_TYPE</text><text fill="#000000" font-family="sans-serif" font-size="14" lengthAdjust="spacing" textLength="272" x="351.5" y="2031.1038">Day : INTERLIS_GregorianDate_Day_TYPE</text><line style="stroke:#181818;stroke-width:0.5;" x1="346.5" x2="666.5" y1="2039.2057" y2="2039.2057"/></g><!--class GregorianDateTime--><g id="elem_GregorianDateTime"><rect codeLine="55" fill="#F1F1F1" height="105.2038" id="GregorianDateTime" rx="2.5" ry="2.5" style="stroke:#181818;stroke-width:0.5;" width="379" x="1044" y="1942.002"/><ellipse cx="1163.25" cy="1958.002" fill="#ADD1B2" rx="11" ry="11" style="stroke:#181818;stroke-width:1.0;"/><path d="M1162.7188,1964.9239 Q1160.9688,1964.9239 1159.8281,1964.1895 Q1158.7031,1963.4395 1158.1406,1962.0957 Q1157.5938,1960.7364 1157.5938,1958.9395 Q1157.5938,1956.9082 1158.25,1955.4551 Q1158.9063,1954.002 1160.1875,1953.2207 Q1161.4688,1952.4395 1163.3438,1952.4395 Q1164.2344,1952.4395 1164.9063,1952.627 Q1165.5781,1952.7989 1166.2656,1953.1426 L1165.4531,1955.1582 Q1164.8281,1954.8457 1164.2813,1954.7207 Q1163.75,1954.5957 1163.2656,1954.5957 Q1162.0938,1954.5957 1161.3906,1955.127 Q1160.6875,1955.6582 1160.3906,1956.6114 Q1160.0938,1957.5645 1160.0938,1958.8301 Q1160.0938,1960.8457 1160.8125,1961.8145 Q1161.5313,1962.7676 1163.125,1962.7676 Q1163.7188,1962.7676 1164.3438,1962.6114 Q1164.9688,1962.4551 1165.7969,1962.0801 L1165.7969,1964.2989 Q1165.0625,1964.6114 1164.2656,1964.7676 Q1163.4844,1964.9239 1162.7188,1964.9239 Z " fill="#000000"/><text fill="#000000" font-family="sans-serif" font-size="14" lengthAdjust="spacing" textLength="132" x="1183.75" y="1963.434">GregorianDateTime</text><line style="stroke:#181818;stroke-width:0.5;" x1="1045" x2="1422" y1="1974.002" y2="1974.002"/><text fill="#000000" font-family="sans-serif" font-size="14" lengthAdjust="spacing" textLength="335" x="1050" y="1992.9679">Hours : INTERLIS_GregorianDateTime_Hours_TYPE</text><text fill="#000000" font-family="sans-serif" font-size="14" lengthAdjust="spacing" textLength="365" x="1050" y="2012.0358">Minutes : INTERLIS_GregorianDateTime_Minutes_TYPE</text><text fill="#000000" font-family="sans-serif" font-size="14" lengthAdjust="spacing" textLength="367" x="1050" y="2031.1038">Seconds : INTERLIS_GregorianDateTime_Seconds_TYPE</text><line style="stroke:#181818;stroke-width:0.5;" x1="1045" x2="1422" y1="2039.2057" y2="2039.2057"/></g><!--class LineSegment--><g id="elem_LineSegment"><rect codeLine="62" fill="#F1F1F1" height="67.0679" id="LineSegment" rx="2.5" ry="2.5" style="stroke:#181818;stroke-width:0.5;" width="279" x="1620" y="2029.072"/><ellipse cx="1715.25" cy="2045.072" fill="#A9DCDF" rx="11" ry="11" style="stroke:#181818;stroke-width:1.0;"/><path d="M1710.4219,2050.822 L1713.7656,2038.6345 L1716.9063,2038.6345 L1720.2813,2050.822 L1717.8125,2050.822 L1717.0781,2047.8064 L1713.5625,2047.8064 L1712.8125,2050.822 L1710.4219,2050.822 Z M1714.8281,2042.7751 L1714.0781,2045.7751 L1716.5938,2045.7751 L1715.875,2042.7751 Q1715.7344,2042.197 1715.6094,2041.6501 Q1715.4844,2041.0876 1715.3438,2040.5095 Q1715.2344,2041.0876 1715.0938,2041.6501 Q1714.9531,2042.197 1714.8281,2042.7751 Z " fill="#000000"/><text fill="#000000" font-family="sans-serif" font-size="14" font-style="italic" lengthAdjust="spacing" textLength="80" x="1735.75" y="2050.504">LineSegment</text><line style="stroke:#181818;stroke-width:0.5;" x1="1621" x2="1898" y1="2061.072" y2="2061.072"/><text fill="#000000" font-family="sans-serif" font-size="14" lengthAdjust="spacing" textLength="267" x="1626" y="2080.0379">SegmentEndPoint : INTERLIS_LineCoord</text><line style="stroke:#181818;stroke-width:0.5;" x1="1621" x2="1898" y1="2088.1399" y2="2088.1399"/></g><!--class StartSegment--><g id="elem_StartSegment"><rect codeLine="66" fill="#F1F1F1" height="48" id="StartSegment" rx="2.5" ry="2.5" style="stroke:#181818;stroke-width:0.5;" width="124" x="1697.5" y="1945.602"/><ellipse cx="1712.5" cy="1961.602" fill="#ADD1B2" rx="11" ry="11" style="stroke:#181818;stroke-width:1.0;"/><path d="M1711.9688,1968.5239 Q1710.2188,1968.5239 1709.0781,1967.7895 Q1707.9531,1967.0395 1707.3906,1965.6957 Q1706.8438,1964.3364 1706.8438,1962.5395 Q1706.8438,1960.5082 1707.5,1959.0551 Q1708.1563,1957.602 1709.4375,1956.8207 Q1710.7188,1956.0395 1712.5938,1956.0395 Q1713.4844,1956.0395 1714.1563,1956.227 Q1714.8281,1956.3989 1715.5156,1956.7426 L1714.7031,1958.7582 Q1714.0781,1958.4457 1713.5313,1958.3207 Q1713,1958.1957 1712.5156,1958.1957 Q1711.3438,1958.1957 1710.6406,1958.727 Q1709.9375,1959.2582 1709.6406,1960.2114 Q1709.3438,1961.1645 1709.3438,1962.4301 Q1709.3438,1964.4457 1710.0625,1965.4145 Q1710.7813,1966.3676 1712.375,1966.3676 Q1712.9688,1966.3676 1713.5938,1966.2114 Q1714.2188,1966.0551 1715.0469,1965.6801 L1715.0469,1967.8989 Q1714.3125,1968.2114 1713.5156,1968.3676 Q1712.7344,1968.5239 1711.9688,1968.5239 Z " fill="#000000"/><text fill="#000000" font-family="sans-serif" font-size="14" lengthAdjust="spacing" textLength="92" x="1726.5" y="1967.034">StartSegment</text><line style="stroke:#181818;stroke-width:0.5;" x1="1698.5" x2="1820.5" y1="1977.602" y2="1977.602"/><line style="stroke:#181818;stroke-width:0.5;" x1="1698.5" x2="1820.5" y1="1985.602" y2="1985.602"/></g><!--class StraightSegment--><g id="elem_StraightSegment"><rect codeLine="69" fill="#F1F1F1" height="48" id="StraightSegment" rx="2.5" ry="2.5" style="stroke:#181818;stroke-width:0.5;" width="146" x="1686.5" y="1862.602"/><ellipse cx="1701.5" cy="1878.602" fill="#ADD1B2" rx="11" ry="11" style="stroke:#181818;stroke-width:1.0;"/><path d="M1700.9688,1885.5239 Q1699.2188,1885.5239 1698.0781,1884.7895 Q1696.9531,1884.0395 1696.3906,1882.6957 Q1695.8438,1881.3364 1695.8438,1879.5395 Q1695.8438,1877.5082 1696.5,1876.0551 Q1697.1563,1874.602 1698.4375,1873.8207 Q1699.7188,1873.0395 1701.5938,1873.0395 Q1702.4844,1873.0395 1703.1563,1873.227 Q1703.8281,1873.3989 1704.5156,1873.7426 L1703.7031,1875.7582 Q1703.0781,1875.4457 1702.5313,1875.3207 Q1702,1875.1957 1701.5156,1875.1957 Q1700.3438,1875.1957 1699.6406,1875.727 Q1698.9375,1876.2582 1698.6406,1877.2114 Q1698.3438,1878.1645 1698.3438,1879.4301 Q1698.3438,1881.4457 1699.0625,1882.4145 Q1699.7813,1883.3676 1701.375,1883.3676 Q1701.9688,1883.3676 1702.5938,1883.2114 Q1703.2188,1883.0551 1704.0469,1882.6801 L1704.0469,1884.8989 Q1703.3125,1885.2114 1702.5156,1885.3676 Q1701.7344,1885.5239 1700.9688,1885.5239 Z " fill="#000000"/><text fill="#000000" font-family="sans-serif" font-size="14" lengthAdjust="spacing" textLength="114" x="1715.5" y="1884.034">StraightSegment</text><line style="stroke:#181818;stroke-width:0.5;" x1="1687.5" x2="1831.5" y1="1894.602" y2="1894.602"/><line style="stroke:#181818;stroke-width:0.5;" x1="1687.5" x2="1831.5" y1="1902.602" y2="1902.602"/></g><!--class ArcSegment--><g id="elem_ArcSegment"><rect codeLine="72" fill="#F1F1F1" height="48" id="ArcSegment" rx="2.5" ry="2.5" style="stroke:#181818;stroke-width:0.5;" width="114" x="1702.5" y="1779.602"/><ellipse cx="1717.5" cy="1795.602" fill="#ADD1B2" rx="11" ry="11" style="stroke:#181818;stroke-width:1.0;"/><path d="M1716.9688,1802.5239 Q1715.2188,1802.5239 1714.0781,1801.7895 Q1712.9531,1801.0395 1712.3906,1799.6957 Q1711.8438,1798.3364 1711.8438,1796.5395 Q1711.8438,1794.5082 1712.5,1793.0551 Q1713.1563,1791.602 1714.4375,1790.8207 Q1715.7188,1790.0395 1717.5938,1790.0395 Q1718.4844,1790.0395 1719.1563,1790.227 Q1719.8281,1790.3989 1720.5156,1790.7426 L1719.7031,1792.7582 Q1719.0781,1792.4457 1718.5313,1792.3207 Q1718,1792.1957 1717.5156,1792.1957 Q1716.3438,1792.1957 1715.6406,1792.727 Q1714.9375,1793.2582 1714.6406,1794.2114 Q1714.3438,1795.1645 1714.3438,1796.4301 Q1714.3438,1798.4457 1715.0625,1799.4145 Q1715.7813,1800.3676 1717.375,1800.3676 Q1717.9688,1800.3676 1718.5938,1800.2114 Q1719.2188,1800.0551 1720.0469,1799.6801 L1720.0469,1801.8989 Q1719.3125,1802.2114 1718.5156,1802.3676 Q1717.7344,1802.5239 1716.9688,1802.5239 Z " fill="#000000"/><text fill="#000000" font-family="sans-serif" font-size="14" lengthAdjust="spacing" textLength="82" x="1731.5" y="1801.034">ArcSegment</text><line style="stroke:#181818;stroke-width:0.5;" x1="1703.5" x2="1815.5" y1="1811.602" y2="1811.602"/><line style="stroke:#181818;stroke-width:0.5;" x1="1703.5" x2="1815.5" y1="1819.602" y2="1819.602"/></g><!--class SurfaceEdge--><g id="elem_SurfaceEdge"><rect codeLine="75" fill="#F1F1F1" height="86.1358" id="SurfaceEdge" rx="2.5" ry="2.5" style="stroke:#181818;stroke-width:0.5;" width="350" x="2190" y="2010.532"/><ellipse cx="2318.25" cy="2026.532" fill="#ADD1B2" rx="11" ry="11" style="stroke:#181818;stroke-width:1.0;"/><path d="M2317.7188,2033.4539 Q2315.9688,2033.4539 2314.8281,2032.7195 Q2313.7031,2031.9695 2313.1406,2030.6257 Q2312.5938,2029.2664 2312.5938,2027.4695 Q2312.5938,2025.4382 2313.25,2023.9851 Q2313.9063,2022.532 2315.1875,2021.7507 Q2316.4688,2020.9695 2318.3438,2020.9695 Q2319.2344,2020.9695 2319.9063,2021.157 Q2320.5781,2021.3289 2321.2656,2021.6726 L2320.4531,2023.6882 Q2319.8281,2023.3757 2319.2813,2023.2507 Q2318.75,2023.1257 2318.2656,2023.1257 Q2317.0938,2023.1257 2316.3906,2023.657 Q2315.6875,2024.1882 2315.3906,2025.1414 Q2315.0938,2026.0945 2315.0938,2027.3601 Q2315.0938,2029.3757 2315.8125,2030.3445 Q2316.5313,2031.2976 2318.125,2031.2976 Q2318.7188,2031.2976 2319.3438,2031.1414 Q2319.9688,2030.9851 2320.7969,2030.6101 L2320.7969,2032.8289 Q2320.0625,2033.1414 2319.2656,2033.2976 Q2318.4844,2033.4539 2317.7188,2033.4539 Z " fill="#000000"/><text fill="#000000" font-family="sans-serif" font-size="14" lengthAdjust="spacing" textLength="85" x="2338.75" y="2031.964">SurfaceEdge</text><line style="stroke:#181818;stroke-width:0.5;" x1="2191" x2="2539" y1="2042.532" y2="2042.532"/><text fill="#000000" font-family="sans-serif" font-size="14" lengthAdjust="spacing" textLength="338" x="2196" y="2061.4979">Geometry : INTERLIS_SurfaceEdge_Geometry_TYPE</text><text fill="#000000" font-family="sans-serif" font-size="14" lengthAdjust="spacing" textLength="328" x="2196" y="2080.5658">LineAttrs : INTERLIS_SurfaceEdge_LineAttrs_TYPE</text><line style="stroke:#181818;stroke-width:0.5;" x1="2191" x2="2539" y1="2088.6678" y2="2088.6678"/></g><!--class SurfaceBoundary--><g id="elem_SurfaceBoundary"><rect codeLine="80" fill="#F1F1F1" height="67.0679" id="SurfaceBoundary" rx="2.5" ry="2.5" style="stroke:#181818;stroke-width:0.5;" width="321" x="2204.5" y="1908.072"/><ellipse cx="2302.75" cy="1924.072" fill="#ADD1B2" rx="11" ry="11" style="stroke:#181818;stroke-width:1.0;"/><path d="M2302.2188,1930.9939 Q2300.4688,1930.9939 2299.3281,1930.2595 Q2298.2031,1929.5095 2297.6406,1928.1657 Q2297.0938,1926.8064 2297.0938,1925.0095 Q2297.0938,1922.9782 2297.75,1921.5251 Q2298.4063,1920.072 2299.6875,1919.2907 Q2300.9688,1918.5095 2302.8438,1918.5095 Q2303.7344,1918.5095 2304.4063,1918.697 Q2305.0781,1918.8689 2305.7656,1919.2126 L2304.9531,1921.2282 Q2304.3281,1920.9157 2303.7813,1920.7907 Q2303.25,1920.6657 2302.7656,1920.6657 Q2301.5938,1920.6657 2300.8906,1921.197 Q2300.1875,1921.7282 2299.8906,1922.6814 Q2299.5938,1923.6345 2299.5938,1924.9001 Q2299.5938,1926.9157 2300.3125,1927.8845 Q2301.0313,1928.8376 2302.625,1928.8376 Q2303.2188,1928.8376 2303.8438,1928.6814 Q2304.4688,1928.5251 2305.2969,1928.1501 L2305.2969,1930.3689 Q2304.5625,1930.6814 2303.7656,1930.8376 Q2302.9844,1930.9939 2302.2188,1930.9939 Z " fill="#000000"/><text fill="#000000" font-family="sans-serif" font-size="14" lengthAdjust="spacing" textLength="116" x="2323.25" y="1929.504">SurfaceBoundary</text><line style="stroke:#181818;stroke-width:0.5;" x1="2205.5" x2="2524.5" y1="1940.072" y2="1940.072"/><text fill="#000000" font-family="sans-serif" font-size="14" lengthAdjust="spacing" textLength="309" x="2210.5" y="1959.0379">Lines : INTERLIS_SurfaceBoundary_Lines_TYPE</text><line style="stroke:#181818;stroke-width:0.5;" x1="2205.5" x2="2524.5" y1="1967.1399" y2="1967.1399"/></g><!--class LineGeometry--><g id="elem_LineGeometry"><rect codeLine="84" fill="#F1F1F1" height="67.0679" id="LineGeometry" rx="2.5" ry="2.5" style="stroke:#181818;stroke-width:0.5;" width="362" x="2184" y="1806.072"/><ellipse cx="2314.25" cy="1822.072" fill="#ADD1B2" rx="11" ry="11" style="stroke:#181818;stroke-width:1.0;"/><path d="M2313.7188,1828.9939 Q2311.9688,1828.9939 2310.8281,1828.2595 Q2309.7031,1827.5095 2309.1406,1826.1657 Q2308.5938,1824.8064 2308.5938,1823.0095 Q2308.5938,1820.9782 2309.25,1819.5251 Q2309.9063,1818.072 2311.1875,1817.2907 Q2312.4688,1816.5095 2314.3438,1816.5095 Q2315.2344,1816.5095 2315.9063,1816.697 Q2316.5781,1816.8689 2317.2656,1817.2126 L2316.4531,1819.2282 Q2315.8281,1818.9157 2315.2813,1818.7907 Q2314.75,1818.6657 2314.2656,1818.6657 Q2313.0938,1818.6657 2312.3906,1819.197 Q2311.6875,1819.7282 2311.3906,1820.6814 Q2311.0938,1821.6345 2311.0938,1822.9001 Q2311.0938,1824.9157 2311.8125,1825.8845 Q2312.5313,1826.8376 2314.125,1826.8376 Q2314.7188,1826.8376 2315.3438,1826.6814 Q2315.9688,1826.5251 2316.7969,1826.1501 L2316.7969,1828.3689 Q2316.0625,1828.6814 2315.2656,1828.8376 Q2314.4844,1828.9939 2313.7188,1828.9939 Z " fill="#000000"/><text fill="#000000" font-family="sans-serif" font-size="14" lengthAdjust="spacing" textLength="93" x="2334.75" y="1827.504">LineGeometry</text><line style="stroke:#181818;stroke-width:0.5;" x1="2185" x2="2545" y1="1838.072" y2="1838.072"/><text fill="#000000" font-family="sans-serif" font-size="14" lengthAdjust="spacing" textLength="350" x="2190" y="1857.0379">Segments : INTERLIS_LineGeometry_Segments_TYPE</text><line style="stroke:#181818;stroke-width:0.5;" x1="2185" x2="2545" y1="1865.1399" y2="1865.1399"/></g><!--class CALENDAR--><g id="elem_CALENDAR"><rect codeLine="34" fill="#F1F1F1" height="48" id="CALENDAR" rx="2.5" ry="2.5" style="stroke:#181818;stroke-width:0.5;" width="104" x="454.5" y="2574.602"/><ellipse cx="469.5" cy="2590.602" fill="#ADD1B2" rx="11" ry="11" style="stroke:#181818;stroke-width:1.0;"/><path d="M468.9688,2597.5239 Q467.2188,2597.5239 466.0781,2596.7895 Q464.9531,2596.0395 464.3906,2594.6957 Q463.8438,2593.3364 463.8438,2591.5395 Q463.8438,2589.5082 464.5,2588.0551 Q465.1563,2586.602 466.4375,2585.8207 Q467.7188,2585.0395 469.5938,2585.0395 Q470.4844,2585.0395 471.1563,2585.227 Q471.8281,2585.3989 472.5156,2585.7426 L471.7031,2587.7582 Q471.0781,2587.4457 470.5313,2587.3207 Q470,2587.1957 469.5156,2587.1957 Q468.3438,2587.1957 467.6406,2587.727 Q466.9375,2588.2582 466.6406,2589.2114 Q466.3438,2590.1645 466.3438,2591.4301 Q466.3438,2593.4457 467.0625,2594.4145 Q467.7813,2595.3676 469.375,2595.3676 Q469.9688,2595.3676 470.5938,2595.2114 Q471.2188,2595.0551 472.0469,2594.6801 L472.0469,2596.8989 Q471.3125,2597.2114 470.5156,2597.3676 Q469.7344,2597.5239 468.9688,2597.5239 Z " fill="#000000"/><text fill="#000000" font-family="sans-serif" font-size="14" lengthAdjust="spacing" textLength="72" x="483.5" y="2596.034">CALENDAR</text><line style="stroke:#181818;stroke-width:0.5;" x1="455.5" x2="557.5" y1="2606.602" y2="2606.602"/><line style="stroke:#181818;stroke-width:0.5;" x1="455.5" x2="557.5" y1="2614.602" y2="2614.602"/></g><!--class TIMEOFDAYSYS--><g id="elem_TIMEOFDAYSYS"><rect codeLine="37" fill="#F1F1F1" height="48" id="TIMEOFDAYSYS" rx="2.5" ry="2.5" style="stroke:#181818;stroke-width:0.5;" width="135" x="439" y="2491.602"/><ellipse cx="454" cy="2507.602" fill="#ADD1B2" rx="11" ry="11" style="stroke:#181818;stroke-width:1.0;"/><path d="M453.4688,2514.5239 Q451.7188,2514.5239 450.5781,2513.7895 Q449.4531,2513.0395 448.8906,2511.6957 Q448.3438,2510.3364 448.3438,2508.5395 Q448.3438,2506.5082 449,2505.0551 Q449.6563,2503.602 450.9375,2502.8207 Q452.2188,2502.0395 454.0938,2502.0395 Q454.9844,2502.0395 455.6563,2502.227 Q456.3281,2502.3989 457.0156,2502.7426 L456.2031,2504.7582 Q455.5781,2504.4457 455.0313,2504.3207 Q454.5,2504.1957 454.0156,2504.1957 Q452.8438,2504.1957 452.1406,2504.727 Q451.4375,2505.2582 451.1406,2506.2114 Q450.8438,2507.1645 450.8438,2508.4301 Q450.8438,2510.4457 451.5625,2511.4145 Q452.2813,2512.3676 453.875,2512.3676 Q454.4688,2512.3676 455.0938,2512.2114 Q455.7188,2512.0551 456.5469,2511.6801 L456.5469,2513.8989 Q455.8125,2514.2114 455.0156,2514.3676 Q454.2344,2514.5239 453.4688,2514.5239 Z " fill="#000000"/><text fill="#000000" font-family="sans-serif" font-size="14" lengthAdjust="spacing" textLength="103" x="468" y="2513.034">TIMEOFDAYSYS</text><line style="stroke:#181818;stroke-width:0.5;" x1="440" x2="573" y1="2523.602" y2="2523.602"/><line style="stroke:#181818;stroke-width:0.5;" x1="440" x2="573" y1="2531.602" y2="2531.602"/></g><!--class Angle_DMS_S--><g id="elem_Angle_DMS_S"><rect codeLine="88" fill="#F1F1F1" height="105.2038" id="Angle_DMS_S" rx="2.5" ry="2.5" style="stroke:#181818;stroke-width:0.5;" width="338" x="1590.5" y="1009.002"/><ellipse cx="1710.25" cy="1025.002" fill="#ADD1B2" rx="11" ry="11" style="stroke:#181818;stroke-width:1.0;"/><path d="M1709.7188,1031.9239 Q1707.9688,1031.9239 1706.8281,1031.1895 Q1705.7031,1030.4395 1705.1406,1029.0957 Q1704.5938,1027.7364 1704.5938,1025.9395 Q1704.5938,1023.9082 1705.25,1022.4551 Q1705.9063,1021.002 1707.1875,1020.2207 Q1708.4688,1019.4395 1710.3438,1019.4395 Q1711.2344,1019.4395 1711.9063,1019.627 Q1712.5781,1019.7989 1713.2656,1020.1426 L1712.4531,1022.1582 Q1711.8281,1021.8457 1711.2813,1021.7207 Q1710.75,1021.5957 1710.2656,1021.5957 Q1709.0938,1021.5957 1708.3906,1022.127 Q1707.6875,1022.6582 1707.3906,1023.6114 Q1707.0938,1024.5645 1707.0938,1025.8301 Q1707.0938,1027.8457 1707.8125,1028.8145 Q1708.5313,1029.7676 1710.125,1029.7676 Q1710.7188,1029.7676 1711.3438,1029.6114 Q1711.9688,1029.4551 1712.7969,1029.0801 L1712.7969,1031.2989 Q1712.0625,1031.6114 1711.2656,1031.7676 Q1710.4844,1031.9239 1709.7188,1031.9239 Z " fill="#000000"/><text fill="#000000" font-family="sans-serif" font-size="14" lengthAdjust="spacing" textLength="90" x="1730.75" y="1030.434">Angle_DMS_S</text><line style="stroke:#181818;stroke-width:0.5;" x1="1591.5" x2="1927.5" y1="1041.002" y2="1041.002"/><text fill="#000000" font-family="sans-serif" font-size="14" lengthAdjust="spacing" textLength="326" x="1596.5" y="1059.9679">Degrees : CoordSys_Angle_DMS_S_Degrees_TYPE</text><text fill="#000000" font-family="sans-serif" font-size="14" lengthAdjust="spacing" textLength="324" x="1596.5" y="1079.0358">Minutes : CoordSys_Angle_DMS_S_Minutes_TYPE</text><text fill="#000000" font-family="sans-serif" font-size="14" lengthAdjust="spacing" textLength="326" x="1596.5" y="1098.1038">Seconds : CoordSys_Angle_DMS_S_Seconds_TYPE</text><line style="stroke:#181818;stroke-width:0.5;" x1="1591.5" x2="1927.5" y1="1106.2057" y2="1106.2057"/></g><!--class Ellipsoid--><g id="elem_Ellipsoid"><rect codeLine="94" fill="#F1F1F1" height="124.2717" id="Ellipsoid" rx="2.5" ry="2.5" style="stroke:#181818;stroke-width:0.5;" width="532" x="2738" y="1410.462"/><ellipse cx="2971.25" cy="1426.462" fill="#ADD1B2" rx="11" ry="11" style="stroke:#181818;stroke-width:1.0;"/><path d="M2970.7188,1433.3839 Q2968.9688,1433.3839 2967.8281,1432.6495 Q2966.7031,1431.8995 2966.1406,1430.5557 Q2965.5938,1429.1964 2965.5938,1427.3995 Q2965.5938,1425.3682 2966.25,1423.9151 Q2966.9063,1422.462 2968.1875,1421.6807 Q2969.4688,1420.8995 2971.3438,1420.8995 Q2972.2344,1420.8995 2972.9063,1421.087 Q2973.5781,1421.2589 2974.2656,1421.6026 L2973.4531,1423.6182 Q2972.8281,1423.3057 2972.2813,1423.1807 Q2971.75,1423.0557 2971.2656,1423.0557 Q2970.0938,1423.0557 2969.3906,1423.587 Q2968.6875,1424.1182 2968.3906,1425.0714 Q2968.0938,1426.0245 2968.0938,1427.2901 Q2968.0938,1429.3057 2968.8125,1430.2745 Q2969.5313,1431.2276 2971.125,1431.2276 Q2971.7188,1431.2276 2972.3438,1431.0714 Q2972.9688,1430.9151 2973.7969,1430.5401 L2973.7969,1432.7589 Q2973.0625,1433.0714 2972.2656,1433.2276 Q2971.4844,1433.3839 2970.7188,1433.3839 Z " fill="#000000"/><text fill="#000000" font-family="sans-serif" font-size="14" lengthAdjust="spacing" textLength="57" x="2991.75" y="1431.894">Ellipsoid</text><line style="stroke:#181818;stroke-width:0.5;" x1="2739" x2="3269" y1="1442.462" y2="1442.462"/><text fill="#000000" font-family="sans-serif" font-size="14" lengthAdjust="spacing" textLength="462" x="2744" y="1461.4279">EllipsoidAlias : CoordSys_CoordsysTopic_Ellipsoid_EllipsoidAlias_TYPE</text><text fill="#000000" font-family="sans-serif" font-size="14" lengthAdjust="spacing" textLength="482" x="2744" y="1480.4958">SemiMajorAxis : CoordSys_CoordsysTopic_Ellipsoid_SemiMajorAxis_TYPE</text><text fill="#000000" font-family="sans-serif" font-size="14" lengthAdjust="spacing" textLength="520" x="2744" y="1499.5638">InverseFlattening : CoordSys_CoordsysTopic_Ellipsoid_InverseFlattening_TYPE</text><text fill="#000000" font-family="sans-serif" font-size="14" lengthAdjust="spacing" textLength="400" x="2744" y="1518.6317">Remarks : CoordSys_CoordsysTopic_Ellipsoid_Remarks_TYPE</text><line style="stroke:#181818;stroke-width:0.5;" x1="2739" x2="3269" y1="1526.7336" y2="1526.7336"/></g><!--class GravityModel--><g id="elem_GravityModel"><rect codeLine="102" fill="#F1F1F1" height="86.1358" id="GravityModel" rx="2.5" ry="2.5" style="stroke:#181818;stroke-width:0.5;" width="546" x="2731" y="1168.532"/><ellipse cx="2955.25" cy="1184.532" fill="#ADD1B2" rx="11" ry="11" style="stroke:#181818;stroke-width:1.0;"/><path d="M2954.7188,1191.4539 Q2952.9688,1191.4539 2951.8281,1190.7195 Q2950.7031,1189.9695 2950.1406,1188.6257 Q2949.5938,1187.2664 2949.5938,1185.4695 Q2949.5938,1183.4382 2950.25,1181.9851 Q2950.9063,1180.532 2952.1875,1179.7507 Q2953.4688,1178.9695 2955.3438,1178.9695 Q2956.2344,1178.9695 2956.9063,1179.157 Q2957.5781,1179.3289 2958.2656,1179.6726 L2957.4531,1181.6882 Q2956.8281,1181.3757 2956.2813,1181.2507 Q2955.75,1181.1257 2955.2656,1181.1257 Q2954.0938,1181.1257 2953.3906,1181.657 Q2952.6875,1182.1882 2952.3906,1183.1414 Q2952.0938,1184.0945 2952.0938,1185.3601 Q2952.0938,1187.3757 2952.8125,1188.3445 Q2953.5313,1189.2976 2955.125,1189.2976 Q2955.7188,1189.2976 2956.3438,1189.1414 Q2956.9688,1188.9851 2957.7969,1188.6101 L2957.7969,1190.8289 Q2957.0625,1191.1414 2956.2656,1191.2976 Q2955.4844,1191.4539 2954.7188,1191.4539 Z " fill="#000000"/><text fill="#000000" font-family="sans-serif" font-size="14" lengthAdjust="spacing" textLength="89" x="2975.75" y="1189.964">GravityModel</text><line style="stroke:#181818;stroke-width:0.5;" x1="2732" x2="3276" y1="1200.532" y2="1200.532"/><text fill="#000000" font-family="sans-serif" font-size="14" lengthAdjust="spacing" textLength="534" x="2737" y="1219.4979">GravityModAlias : CoordSys_CoordsysTopic_GravityModel_GravityModAlias_TYPE</text><text fill="#000000" font-family="sans-serif" font-size="14" lengthAdjust="spacing" textLength="448" x="2737" y="1238.5658">Definition : CoordSys_CoordsysTopic_GravityModel_Definition_TYPE</text><line style="stroke:#181818;stroke-width:0.5;" x1="2732" x2="3276" y1="1246.6678" y2="1246.6678"/></g><!--class GeoidModel--><g id="elem_GeoidModel"><rect codeLine="108" fill="#F1F1F1" height="86.1358" id="GeoidModel" rx="2.5" ry="2.5" style="stroke:#181818;stroke-width:0.5;" width="522" x="2743" y="1289.532"/><ellipse cx="2959.25" cy="1305.532" fill="#ADD1B2" rx="11" ry="11" style="stroke:#181818;stroke-width:1.0;"/><path d="M2958.7188,1312.4539 Q2956.9688,1312.4539 2955.8281,1311.7195 Q2954.7031,1310.9695 2954.1406,1309.6257 Q2953.5938,1308.2664 2953.5938,1306.4695 Q2953.5938,1304.4382 2954.25,1302.9851 Q2954.9063,1301.532 2956.1875,1300.7507 Q2957.4688,1299.9695 2959.3438,1299.9695 Q2960.2344,1299.9695 2960.9063,1300.157 Q2961.5781,1300.3289 2962.2656,1300.6726 L2961.4531,1302.6882 Q2960.8281,1302.3757 2960.2813,1302.2507 Q2959.75,1302.1257 2959.2656,1302.1257 Q2958.0938,1302.1257 2957.3906,1302.657 Q2956.6875,1303.1882 2956.3906,1304.1414 Q2956.0938,1305.0945 2956.0938,1306.3601 Q2956.0938,1308.3757 2956.8125,1309.3445 Q2957.5313,1310.2976 2959.125,1310.2976 Q2959.7188,1310.2976 2960.3438,1310.1414 Q2960.9688,1309.9851 2961.7969,1309.6101 L2961.7969,1311.8289 Q2961.0625,1312.1414 2960.2656,1312.2976 Q2959.4844,1312.4539 2958.7188,1312.4539 Z " fill="#000000"/><text fill="#000000" font-family="sans-serif" font-size="14" lengthAdjust="spacing" textLength="81" x="2979.75" y="1310.964">GeoidModel</text><line style="stroke:#181818;stroke-width:0.5;" x1="2744" x2="3264" y1="1321.532" y2="1321.532"/><text fill="#000000" font-family="sans-serif" font-size="14" lengthAdjust="spacing" textLength="510" x="2749" y="1340.4979">GeoidModAlias : CoordSys_CoordsysTopic_GeoidModel_GeoidModAlias_TYPE</text><text fill="#000000" font-family="sans-serif" font-size="14" lengthAdjust="spacing" textLength="440" x="2749" y="1359.5658">Definition : CoordSys_CoordsysTopic_GeoidModel_Definition_TYPE</text><line style="stroke:#181818;stroke-width:0.5;" x1="2744" x2="3264" y1="1367.6678" y2="1367.6678"/></g><!--class LengthAXIS--><g id="elem_LengthAXIS"><rect codeLine="114" fill="#F1F1F1" height="86.1358" id="LengthAXIS" rx="2.5" ry="2.5" style="stroke:#181818;stroke-width:0.5;" width="470" x="1524.5" y="1345.532"/><ellipse cx="1716.75" cy="1361.532" fill="#ADD1B2" rx="11" ry="11" style="stroke:#181818;stroke-width:1.0;"/><path d="M1716.2188,1368.4539 Q1714.4688,1368.4539 1713.3281,1367.7195 Q1712.2031,1366.9695 1711.6406,1365.6257 Q1711.0938,1364.2664 1711.0938,1362.4695 Q1711.0938,1360.4382 1711.75,1358.9851 Q1712.4063,1357.532 1713.6875,1356.7507 Q1714.9688,1355.9695 1716.8438,1355.9695 Q1717.7344,1355.9695 1718.4063,1356.157 Q1719.0781,1356.3289 1719.7656,1356.6726 L1718.9531,1358.6882 Q1718.3281,1358.3757 1717.7813,1358.2507 Q1717.25,1358.1257 1716.7656,1358.1257 Q1715.5938,1358.1257 1714.8906,1358.657 Q1714.1875,1359.1882 1713.8906,1360.1414 Q1713.5938,1361.0945 1713.5938,1362.3601 Q1713.5938,1364.3757 1714.3125,1365.3445 Q1715.0313,1366.2976 1716.625,1366.2976 Q1717.2188,1366.2976 1717.8438,1366.1414 Q1718.4688,1365.9851 1719.2969,1365.6101 L1719.2969,1367.8289 Q1718.5625,1368.1414 1717.7656,1368.2976 Q1716.9844,1368.4539 1716.2188,1368.4539 Z " fill="#000000"/><text fill="#000000" font-family="sans-serif" font-size="14" lengthAdjust="spacing" textLength="77" x="1737.25" y="1366.964">LengthAXIS</text><line style="stroke:#181818;stroke-width:0.5;" x1="1525.5" x2="1993.5" y1="1377.532" y2="1377.532"/><text fill="#000000" font-family="sans-serif" font-size="14" lengthAdjust="spacing" textLength="456" x="1530.5" y="1396.4979">ShortName : CoordSys_CoordsysTopic_LengthAXIS_ShortName_TYPE</text><text fill="#000000" font-family="sans-serif" font-size="14" lengthAdjust="spacing" textLength="458" x="1530.5" y="1415.5658">Description : CoordSys_CoordsysTopic_LengthAXIS_Description_TYPE</text><line style="stroke:#181818;stroke-width:0.5;" x1="1525.5" x2="1993.5" y1="1423.6678" y2="1423.6678"/></g><!--class AngleAXIS--><g id="elem_AngleAXIS"><rect codeLine="120" fill="#F1F1F1" height="86.1358" id="AngleAXIS" rx="2.5" ry="2.5" style="stroke:#181818;stroke-width:0.5;" width="462" x="1528.5" y="1224.532"/><ellipse cx="1720.75" cy="1240.532" fill="#ADD1B2" rx="11" ry="11" style="stroke:#181818;stroke-width:1.0;"/><path d="M1720.2188,1247.4539 Q1718.4688,1247.4539 1717.3281,1246.7195 Q1716.2031,1245.9695 1715.6406,1244.6257 Q1715.0938,1243.2664 1715.0938,1241.4695 Q1715.0938,1239.4382 1715.75,1237.9851 Q1716.4063,1236.532 1717.6875,1235.7507 Q1718.9688,1234.9695 1720.8438,1234.9695 Q1721.7344,1234.9695 1722.4063,1235.157 Q1723.0781,1235.3289 1723.7656,1235.6726 L1722.9531,1237.6882 Q1722.3281,1237.3757 1721.7813,1237.2507 Q1721.25,1237.1257 1720.7656,1237.1257 Q1719.5938,1237.1257 1718.8906,1237.657 Q1718.1875,1238.1882 1717.8906,1239.1414 Q1717.5938,1240.0945 1717.5938,1241.3601 Q1717.5938,1243.3757 1718.3125,1244.3445 Q1719.0313,1245.2976 1720.625,1245.2976 Q1721.2188,1245.2976 1721.8438,1245.1414 Q1722.4688,1244.9851 1723.2969,1244.6101 L1723.2969,1246.8289 Q1722.5625,1247.1414 1721.7656,1247.2976 Q1720.9844,1247.4539 1720.2188,1247.4539 Z " fill="#000000"/><text fill="#000000" font-family="sans-serif" font-size="14" lengthAdjust="spacing" textLength="69" x="1741.25" y="1245.964">AngleAXIS</text><line style="stroke:#181818;stroke-width:0.5;" x1="1529.5" x2="1989.5" y1="1256.532" y2="1256.532"/><text fill="#000000" font-family="sans-serif" font-size="14" lengthAdjust="spacing" textLength="448" x="1534.5" y="1275.4979">ShortName : CoordSys_CoordsysTopic_AngleAXIS_ShortName_TYPE</text><text fill="#000000" font-family="sans-serif" font-size="14" lengthAdjust="spacing" textLength="450" x="1534.5" y="1294.5658">Description : CoordSys_CoordsysTopic_AngleAXIS_Description_TYPE</text><line style="stroke:#181818;stroke-width:0.5;" x1="1529.5" x2="1989.5" y1="1302.6678" y2="1302.6678"/></g><!--class GeoCartesian1D--><g id="elem_GeoCartesian1D"><rect codeLine="126" fill="#F1F1F1" height="67.0679" id="GeoCartesian1D" rx="2.5" ry="2.5" style="stroke:#181818;stroke-width:0.5;" width="401" x="1559" y="1606.072"/><ellipse cx="1701.25" cy="1622.072" fill="#ADD1B2" rx="11" ry="11" style="stroke:#181818;stroke-width:1.0;"/><path d="M1700.7188,1628.9939 Q1698.9688,1628.9939 1697.8281,1628.2595 Q1696.7031,1627.5095 1696.1406,1626.1657 Q1695.5938,1624.8064 1695.5938,1623.0095 Q1695.5938,1620.9782 1696.25,1619.5251 Q1696.9063,1618.072 1698.1875,1617.2907 Q1699.4688,1616.5095 1701.3438,1616.5095 Q1702.2344,1616.5095 1702.9063,1616.697 Q1703.5781,1616.8689 1704.2656,1617.2126 L1703.4531,1619.2282 Q1702.8281,1618.9157 1702.2813,1618.7907 Q1701.75,1618.6657 1701.2656,1618.6657 Q1700.0938,1618.6657 1699.3906,1619.197 Q1698.6875,1619.7282 1698.3906,1620.6814 Q1698.0938,1621.6345 1698.0938,1622.9001 Q1698.0938,1624.9157 1698.8125,1625.8845 Q1699.5313,1626.8376 1701.125,1626.8376 Q1701.7188,1626.8376 1702.3438,1626.6814 Q1702.9688,1626.5251 1703.7969,1626.1501 L1703.7969,1628.3689 Q1703.0625,1628.6814 1702.2656,1628.8376 Q1701.4844,1628.9939 1700.7188,1628.9939 Z " fill="#000000"/><text fill="#000000" font-family="sans-serif" font-size="14" lengthAdjust="spacing" textLength="108" x="1721.75" y="1627.504">GeoCartesian1D</text><line style="stroke:#181818;stroke-width:0.5;" x1="1560" x2="1959" y1="1638.072" y2="1638.072"/><text fill="#000000" font-family="sans-serif" font-size="14" lengthAdjust="spacing" textLength="389" x="1565" y="1657.0379">Axis : CoordSys_CoordsysTopic_GeoCartesian1D_Axis_TYPE</text><line style="stroke:#181818;stroke-width:0.5;" x1="1560" x2="1959" y1="1665.1399" y2="1665.1399"/></g><!--class GeoHeight--><g id="elem_GeoHeight"><rect codeLine="131" fill="#F1F1F1" height="105.2038" id="GeoHeight" rx="2.5" ry="2.5" style="stroke:#181818;stroke-width:0.5;" width="612" x="2059" y="1350.002"/><ellipse cx="2325.25" cy="1366.002" fill="#ADD1B2" rx="11" ry="11" style="stroke:#181818;stroke-width:1.0;"/><path d="M2324.7188,1372.9239 Q2322.9688,1372.9239 2321.8281,1372.1895 Q2320.7031,1371.4395 2320.1406,1370.0957 Q2319.5938,1368.7364 2319.5938,1366.9395 Q2319.5938,1364.9082 2320.25,1363.4551 Q2320.9063,1362.002 2322.1875,1361.2207 Q2323.4688,1360.4395 2325.3438,1360.4395 Q2326.2344,1360.4395 2326.9063,1360.627 Q2327.5781,1360.7989 2328.2656,1361.1426 L2327.4531,1363.1582 Q2326.8281,1362.8457 2326.2813,1362.7207 Q2325.75,1362.5957 2325.2656,1362.5957 Q2324.0938,1362.5957 2323.3906,1363.127 Q2322.6875,1363.6582 2322.3906,1364.6114 Q2322.0938,1365.5645 2322.0938,1366.8301 Q2322.0938,1368.8457 2322.8125,1369.8145 Q2323.5313,1370.7676 2325.125,1370.7676 Q2325.7188,1370.7676 2326.3438,1370.6114 Q2326.9688,1370.4551 2327.7969,1370.0801 L2327.7969,1372.2989 Q2327.0625,1372.6114 2326.2656,1372.7676 Q2325.4844,1372.9239 2324.7188,1372.9239 Z " fill="#000000"/><text fill="#000000" font-family="sans-serif" font-size="14" lengthAdjust="spacing" textLength="71" x="2345.75" y="1371.434">GeoHeight</text><line style="stroke:#181818;stroke-width:0.5;" x1="2060" x2="2670" y1="1382.002" y2="1382.002"/><text fill="#000000" font-family="sans-serif" font-size="14" lengthAdjust="spacing" textLength="394" x="2065" y="1400.9679">System : CoordSys_CoordsysTopic_GeoHeight_System_TYPE</text><text fill="#000000" font-family="sans-serif" font-size="14" lengthAdjust="spacing" textLength="524" x="2065" y="1420.0358">ReferenceHeight : CoordSys_CoordsysTopic_GeoHeight_ReferenceHeight_TYPE</text><text fill="#000000" font-family="sans-serif" font-size="14" lengthAdjust="spacing" textLength="600" x="2065" y="1439.1038">ReferenceHeightDescr : CoordSys_CoordsysTopic_GeoHeight_ReferenceHeightDescr_TYPE</text><line style="stroke:#181818;stroke-width:0.5;" x1="2060" x2="2670" y1="1447.2057" y2="1447.2057"/></g><!--class GeoCartesian2D--><g id="elem_GeoCartesian2D"><rect codeLine="144" fill="#F1F1F1" height="86.1358" id="GeoCartesian2D" rx="2.5" ry="2.5" style="stroke:#181818;stroke-width:0.5;" width="479" x="2764.5" y="1587.532"/><ellipse cx="2945.75" cy="1603.532" fill="#ADD1B2" rx="11" ry="11" style="stroke:#181818;stroke-width:1.0;"/><path d="M2945.2188,1610.4539 Q2943.4688,1610.4539 2942.3281,1609.7195 Q2941.2031,1608.9695 2940.6406,1607.6257 Q2940.0938,1606.2664 2940.0938,1604.4695 Q2940.0938,1602.4382 2940.75,1600.9851 Q2941.4063,1599.532 2942.6875,1598.7507 Q2943.9688,1597.9695 2945.8438,1597.9695 Q2946.7344,1597.9695 2947.4063,1598.157 Q2948.0781,1598.3289 2948.7656,1598.6726 L2947.9531,1600.6882 Q2947.3281,1600.3757 2946.7813,1600.2507 Q2946.25,1600.1257 2945.7656,1600.1257 Q2944.5938,1600.1257 2943.8906,1600.657 Q2943.1875,1601.1882 2942.8906,1602.1414 Q2942.5938,1603.0945 2942.5938,1604.3601 Q2942.5938,1606.3757 2943.3125,1607.3445 Q2944.0313,1608.2976 2945.625,1608.2976 Q2946.2188,1608.2976 2946.8438,1608.1414 Q2947.4688,1607.9851 2948.2969,1607.6101 L2948.2969,1609.8289 Q2947.5625,1610.1414 2946.7656,1610.2976 Q2945.9844,1610.4539 2945.2188,1610.4539 Z " fill="#000000"/><text fill="#000000" font-family="sans-serif" font-size="14" lengthAdjust="spacing" textLength="108" x="2966.25" y="1608.964">GeoCartesian2D</text><line style="stroke:#181818;stroke-width:0.5;" x1="2765.5" x2="3242.5" y1="1619.532" y2="1619.532"/><text fill="#000000" font-family="sans-serif" font-size="14" lengthAdjust="spacing" textLength="389" x="2770.5" y="1638.4979">Axis : CoordSys_CoordsysTopic_GeoCartesian2D_Axis_TYPE</text><text fill="#000000" font-family="sans-serif" font-size="14" lengthAdjust="spacing" textLength="467" x="2770.5" y="1657.5658">Definition : CoordSys_CoordsysTopic_GeoCartesian2D_Definition_TYPE</text><line style="stroke:#181818;stroke-width:0.5;" x1="2765.5" x2="3242.5" y1="1665.6678" y2="1665.6678"/></g><!--class GeoCartesian3D--><g id="elem_GeoCartesian3D"><rect codeLine="150" fill="#F1F1F1" height="86.1358" id="GeoCartesian3D" rx="2.5" ry="2.5" style="stroke:#181818;stroke-width:0.5;" width="479" x="1520" y="1484.532"/><ellipse cx="1701.25" cy="1500.532" fill="#ADD1B2" rx="11" ry="11" style="stroke:#181818;stroke-width:1.0;"/><path d="M1700.7188,1507.4539 Q1698.9688,1507.4539 1697.8281,1506.7195 Q1696.7031,1505.9695 1696.1406,1504.6257 Q1695.5938,1503.2664 1695.5938,1501.4695 Q1695.5938,1499.4382 1696.25,1497.9851 Q1696.9063,1496.532 1698.1875,1495.7507 Q1699.4688,1494.9695 1701.3438,1494.9695 Q1702.2344,1494.9695 1702.9063,1495.157 Q1703.5781,1495.3289 1704.2656,1495.6726 L1703.4531,1497.6882 Q1702.8281,1497.3757 1702.2813,1497.2507 Q1701.75,1497.1257 1701.2656,1497.1257 Q1700.0938,1497.1257 1699.3906,1497.657 Q1698.6875,1498.1882 1698.3906,1499.1414 Q1698.0938,1500.0945 1698.0938,1501.3601 Q1698.0938,1503.3757 1698.8125,1504.3445 Q1699.5313,1505.2976 1701.125,1505.2976 Q1701.7188,1505.2976 1702.3438,1505.1414 Q1702.9688,1504.9851 1703.7969,1504.6101 L1703.7969,1506.8289 Q1703.0625,1507.1414 1702.2656,1507.2976 Q1701.4844,1507.4539 1700.7188,1507.4539 Z " fill="#000000"/><text fill="#000000" font-family="sans-serif" font-size="14" lengthAdjust="spacing" textLength="108" x="1721.75" y="1505.964">GeoCartesian3D</text><line style="stroke:#181818;stroke-width:0.5;" x1="1521" x2="1998" y1="1516.532" y2="1516.532"/><text fill="#000000" font-family="sans-serif" font-size="14" lengthAdjust="spacing" textLength="389" x="1526" y="1535.4979">Axis : CoordSys_CoordsysTopic_GeoCartesian3D_Axis_TYPE</text><text fill="#000000" font-family="sans-serif" font-size="14" lengthAdjust="spacing" textLength="467" x="1526" y="1554.5658">Definition : CoordSys_CoordsysTopic_GeoCartesian3D_Definition_TYPE</text><line style="stroke:#181818;stroke-width:0.5;" x1="1521" x2="1998" y1="1562.6678" y2="1562.6678"/></g><!--class GeoEllipsoidal--><g id="elem_GeoEllipsoidal"><rect codeLine="156" fill="#F1F1F1" height="86.1358" id="GeoEllipsoidal" rx="2.5" ry="2.5" style="stroke:#181818;stroke-width:0.5;" width="466" x="2132" y="1587.532"/><ellipse cx="2313.25" cy="1603.532" fill="#ADD1B2" rx="11" ry="11" style="stroke:#181818;stroke-width:1.0;"/><path d="M2312.7188,1610.4539 Q2310.9688,1610.4539 2309.8281,1609.7195 Q2308.7031,1608.9695 2308.1406,1607.6257 Q2307.5938,1606.2664 2307.5938,1604.4695 Q2307.5938,1602.4382 2308.25,1600.9851 Q2308.9063,1599.532 2310.1875,1598.7507 Q2311.4688,1597.9695 2313.3438,1597.9695 Q2314.2344,1597.9695 2314.9063,1598.157 Q2315.5781,1598.3289 2316.2656,1598.6726 L2315.4531,1600.6882 Q2314.8281,1600.3757 2314.2813,1600.2507 Q2313.75,1600.1257 2313.2656,1600.1257 Q2312.0938,1600.1257 2311.3906,1600.657 Q2310.6875,1601.1882 2310.3906,1602.1414 Q2310.0938,1603.0945 2310.0938,1604.3601 Q2310.0938,1606.3757 2310.8125,1607.3445 Q2311.5313,1608.2976 2313.125,1608.2976 Q2313.7188,1608.2976 2314.3438,1608.1414 Q2314.9688,1607.9851 2315.7969,1607.6101 L2315.7969,1609.8289 Q2315.0625,1610.1414 2314.2656,1610.2976 Q2313.4844,1610.4539 2312.7188,1610.4539 Z " fill="#000000"/><text fill="#000000" font-family="sans-serif" font-size="14" lengthAdjust="spacing" textLength="95" x="2333.75" y="1608.964">GeoEllipsoidal</text><line style="stroke:#181818;stroke-width:0.5;" x1="2133" x2="2597" y1="1619.532" y2="1619.532"/><text fill="#000000" font-family="sans-serif" font-size="14" lengthAdjust="spacing" textLength="376" x="2138" y="1638.4979">Axis : CoordSys_CoordsysTopic_GeoEllipsoidal_Axis_TYPE</text><text fill="#000000" font-family="sans-serif" font-size="14" lengthAdjust="spacing" textLength="454" x="2138" y="1657.5658">Definition : CoordSys_CoordsysTopic_GeoEllipsoidal_Definition_TYPE</text><line style="stroke:#181818;stroke-width:0.5;" x1="2133" x2="2597" y1="1665.6678" y2="1665.6678"/></g><!--class LineStructure--><g id="elem_LineStructure"><rect codeLine="174" fill="#F1F1F1" height="67.0679" id="LineStructure" rx="2.5" ry="2.5" style="stroke:#181818;stroke-width:0.5;" width="223" x="395" y="693.072"/><ellipse cx="456.75" cy="709.072" fill="#ADD1B2" rx="11" ry="11" style="stroke:#181818;stroke-width:1.0;"/><path d="M456.2188,715.9939 Q454.4688,715.9939 453.3281,715.2595 Q452.2031,714.5095 451.6406,713.1657 Q451.0938,711.8064 451.0938,710.0095 Q451.0938,707.9782 451.75,706.5251 Q452.4063,705.072 453.6875,704.2907 Q454.9688,703.5095 456.8438,703.5095 Q457.7344,703.5095 458.4063,703.697 Q459.0781,703.8689 459.7656,704.2126 L458.9531,706.2282 Q458.3281,705.9157 457.7813,705.7907 Q457.25,705.6657 456.7656,705.6657 Q455.5938,705.6657 454.8906,706.197 Q454.1875,706.7282 453.8906,707.6814 Q453.5938,708.6345 453.5938,709.9001 Q453.5938,711.9157 454.3125,712.8845 Q455.0313,713.8376 456.625,713.8376 Q457.2188,713.8376 457.8438,713.6814 Q458.4688,713.5251 459.2969,713.1501 L459.2969,715.3689 Q458.5625,715.6814 457.7656,715.8376 Q456.9844,715.9939 456.2188,715.9939 Z " fill="#000000"/><text fill="#000000" font-family="sans-serif" font-size="14" lengthAdjust="spacing" textLength="91" x="477.25" y="714.504">LineStructure</text><line style="stroke:#181818;stroke-width:0.5;" x1="396" x2="617" y1="725.072" y2="725.072"/><text fill="#000000" font-family="sans-serif" font-size="14" lengthAdjust="spacing" textLength="211" x="401" y="744.0379">Line : GeometryCHLV03_V1_Line</text><line style="stroke:#181818;stroke-width:0.5;" x1="396" x2="617" y1="752.1399" y2="752.1399"/></g><!--class DirectedLineStructure--><g id="elem_DirectedLineStructure"><rect codeLine="178" fill="#F1F1F1" height="67.0679" id="DirectedLineStructure" rx="2.5" ry="2.5" style="stroke:#181818;stroke-width:0.5;" width="280" x="366.5" y="591.072"/><ellipse cx="428.25" cy="607.072" fill="#ADD1B2" rx="11" ry="11" style="stroke:#181818;stroke-width:1.0;"/><path d="M427.7188,613.9939 Q425.9688,613.9939 424.8281,613.2595 Q423.7031,612.5095 423.1406,611.1657 Q422.5938,609.8064 422.5938,608.0095 Q422.5938,605.9782 423.25,604.5251 Q423.9063,603.072 425.1875,602.2907 Q426.4688,601.5095 428.3438,601.5095 Q429.2344,601.5095 429.9063,601.697 Q430.5781,601.8689 431.2656,602.2126 L430.4531,604.2282 Q429.8281,603.9157 429.2813,603.7907 Q428.75,603.6657 428.2656,603.6657 Q427.0938,603.6657 426.3906,604.197 Q425.6875,604.7282 425.3906,605.6814 Q425.0938,606.6345 425.0938,607.9001 Q425.0938,609.9157 425.8125,610.8845 Q426.5313,611.8376 428.125,611.8376 Q428.7188,611.8376 429.3438,611.6814 Q429.9688,611.5251 430.7969,611.1501 L430.7969,613.3689 Q430.0625,613.6814 429.2656,613.8376 Q428.4844,613.9939 427.7188,613.9939 Z " fill="#000000"/><text fill="#000000" font-family="sans-serif" font-size="14" lengthAdjust="spacing" textLength="148" x="448.75" y="612.504">DirectedLineStructure</text><line style="stroke:#181818;stroke-width:0.5;" x1="367.5" x2="645.5" y1="623.072" y2="623.072"/><text fill="#000000" font-family="sans-serif" font-size="14" lengthAdjust="spacing" textLength="268" x="372.5" y="642.0379">Line : GeometryCHLV03_V1_DirectedLine</text><line style="stroke:#181818;stroke-width:0.5;" x1="367.5" x2="645.5" y1="650.1399" y2="650.1399"/></g><!--class MultiLine--><g id="elem_MultiLine"><rect codeLine="182" fill="#F1F1F1" height="67.0679" id="MultiLine" rx="2.5" ry="2.5" style="stroke:#181818;stroke-width:0.5;" width="344" x="334.5" y="489.072"/><ellipse cx="470.75" cy="505.072" fill="#ADD1B2" rx="11" ry="11" style="stroke:#181818;stroke-width:1.0;"/><path d="M470.2188,511.9939 Q468.4688,511.9939 467.3281,511.2595 Q466.2031,510.5095 465.6406,509.1657 Q465.0938,507.8064 465.0938,506.0095 Q465.0938,503.9782 465.75,502.5251 Q466.4063,501.072 467.6875,500.2907 Q468.9688,499.5095 470.8438,499.5095 Q471.7344,499.5095 472.4063,499.697 Q473.0781,499.8689 473.7656,500.2126 L472.9531,502.2282 Q472.3281,501.9157 471.7813,501.7907 Q471.25,501.6657 470.7656,501.6657 Q469.5938,501.6657 468.8906,502.197 Q468.1875,502.7282 467.8906,503.6814 Q467.5938,504.6345 467.5938,505.9001 Q467.5938,507.9157 468.3125,508.8845 Q469.0313,509.8376 470.625,509.8376 Q471.2188,509.8376 471.8438,509.6814 Q472.4688,509.5251 473.2969,509.1501 L473.2969,511.3689 Q472.5625,511.6814 471.7656,511.8376 Q470.9844,511.9939 470.2188,511.9939 Z " fill="#000000"/><text fill="#000000" font-family="sans-serif" font-size="14" lengthAdjust="spacing" textLength="63" x="491.25" y="510.504">MultiLine</text><line style="stroke:#181818;stroke-width:0.5;" x1="335.5" x2="677.5" y1="521.072" y2="521.072"/><text fill="#000000" font-family="sans-serif" font-size="14" lengthAdjust="spacing" textLength="332" x="340.5" y="540.0379">Lines : GeometryCHLV03_V1_MultiLine_Lines_TYPE</text><line style="stroke:#181818;stroke-width:0.5;" x1="335.5" x2="677.5" y1="548.1399" y2="548.1399"/></g><!--class MultiDirectedLine--><g id="elem_MultiDirectedLine"><rect codeLine="186" fill="#F1F1F1" height="67.0679" id="MultiDirectedLine" rx="2.5" ry="2.5" style="stroke:#181818;stroke-width:0.5;" width="401" x="1033" y="693.072"/><ellipse cx="1169.25" cy="709.072" fill="#ADD1B2" rx="11" ry="11" style="stroke:#181818;stroke-width:1.0;"/><path d="M1168.7188,715.9939 Q1166.9688,715.9939 1165.8281,715.2595 Q1164.7031,714.5095 1164.1406,713.1657 Q1163.5938,711.8064 1163.5938,710.0095 Q1163.5938,707.9782 1164.25,706.5251 Q1164.9063,705.072 1166.1875,704.2907 Q1167.4688,703.5095 1169.3438,703.5095 Q1170.2344,703.5095 1170.9063,703.697 Q1171.5781,703.8689 1172.2656,704.2126 L1171.4531,706.2282 Q1170.8281,705.9157 1170.2813,705.7907 Q1169.75,705.6657 1169.2656,705.6657 Q1168.0938,705.6657 1167.3906,706.197 Q1166.6875,706.7282 1166.3906,707.6814 Q1166.0938,708.6345 1166.0938,709.9001 Q1166.0938,711.9157 1166.8125,712.8845 Q1167.5313,713.8376 1169.125,713.8376 Q1169.7188,713.8376 1170.3438,713.6814 Q1170.9688,713.5251 1171.7969,713.1501 L1171.7969,715.3689 Q1171.0625,715.6814 1170.2656,715.8376 Q1169.4844,715.9939 1168.7188,715.9939 Z " fill="#000000"/><text fill="#000000" font-family="sans-serif" font-size="14" lengthAdjust="spacing" textLength="120" x="1189.75" y="714.504">MultiDirectedLine</text><line style="stroke:#181818;stroke-width:0.5;" x1="1034" x2="1433" y1="725.072" y2="725.072"/><text fill="#000000" font-family="sans-serif" font-size="14" lengthAdjust="spacing" textLength="389" x="1039" y="744.0379">Lines : GeometryCHLV03_V1_MultiDirectedLine_Lines_TYPE</text><line style="stroke:#181818;stroke-width:0.5;" x1="1034" x2="1433" y1="752.1399" y2="752.1399"/></g><!--class SurfaceStructure--><g id="elem_SurfaceStructure"><rect codeLine="190" fill="#F1F1F1" height="67.0679" id="SurfaceStructure" rx="2.5" ry="2.5" style="stroke:#181818;stroke-width:0.5;" width="269" x="1099" y="591.072"/><ellipse cx="1172.25" cy="607.072" fill="#ADD1B2" rx="11" ry="11" style="stroke:#181818;stroke-width:1.0;"/><path d="M1171.7188,613.9939 Q1169.9688,613.9939 1168.8281,613.2595 Q1167.7031,612.5095 1167.1406,611.1657 Q1166.5938,609.8064 1166.5938,608.0095 Q1166.5938,605.9782 1167.25,604.5251 Q1167.9063,603.072 1169.1875,602.2907 Q1170.4688,601.5095 1172.3438,601.5095 Q1173.2344,601.5095 1173.9063,601.697 Q1174.5781,601.8689 1175.2656,602.2126 L1174.4531,604.2282 Q1173.8281,603.9157 1173.2813,603.7907 Q1172.75,603.6657 1172.2656,603.6657 Q1171.0938,603.6657 1170.3906,604.197 Q1169.6875,604.7282 1169.3906,605.6814 Q1169.0938,606.6345 1169.0938,607.9001 Q1169.0938,609.9157 1169.8125,610.8845 Q1170.5313,611.8376 1172.125,611.8376 Q1172.7188,611.8376 1173.3438,611.6814 Q1173.9688,611.5251 1174.7969,611.1501 L1174.7969,613.3689 Q1174.0625,613.6814 1173.2656,613.8376 Q1172.4844,613.9939 1171.7188,613.9939 Z " fill="#000000"/><text fill="#000000" font-family="sans-serif" font-size="14" lengthAdjust="spacing" textLength="114" x="1192.75" y="612.504">SurfaceStructure</text><line style="stroke:#181818;stroke-width:0.5;" x1="1100" x2="1367" y1="623.072" y2="623.072"/><text fill="#000000" font-family="sans-serif" font-size="14" lengthAdjust="spacing" textLength="257" x="1105" y="642.0379">Surface : GeometryCHLV03_V1_Surface</text><line style="stroke:#181818;stroke-width:0.5;" x1="1100" x2="1367" y1="650.1399" y2="650.1399"/></g><!--class MultiSurface--><g id="elem_MultiSurface"><rect codeLine="194" fill="#F1F1F1" height="67.0679" id="MultiSurface" rx="2.5" ry="2.5" style="stroke:#181818;stroke-width:0.5;" width="413" x="1027" y="489.072"/><ellipse cx="1186.25" cy="505.072" fill="#ADD1B2" rx="11" ry="11" style="stroke:#181818;stroke-width:1.0;"/><path d="M1185.7188,511.9939 Q1183.9688,511.9939 1182.8281,511.2595 Q1181.7031,510.5095 1181.1406,509.1657 Q1180.5938,507.8064 1180.5938,506.0095 Q1180.5938,503.9782 1181.25,502.5251 Q1181.9063,501.072 1183.1875,500.2907 Q1184.4688,499.5095 1186.3438,499.5095 Q1187.2344,499.5095 1187.9063,499.697 Q1188.5781,499.8689 1189.2656,500.2126 L1188.4531,502.2282 Q1187.8281,501.9157 1187.2813,501.7907 Q1186.75,501.6657 1186.2656,501.6657 Q1185.0938,501.6657 1184.3906,502.197 Q1183.6875,502.7282 1183.3906,503.6814 Q1183.0938,504.6345 1183.0938,505.9001 Q1183.0938,507.9157 1183.8125,508.8845 Q1184.5313,509.8376 1186.125,509.8376 Q1186.7188,509.8376 1187.3438,509.6814 Q1187.9688,509.5251 1188.7969,509.1501 L1188.7969,511.3689 Q1188.0625,511.6814 1187.2656,511.8376 Q1186.4844,511.9939 1185.7188,511.9939 Z " fill="#000000"/><text fill="#000000" font-family="sans-serif" font-size="14" lengthAdjust="spacing" textLength="86" x="1206.75" y="510.504">MultiSurface</text><line style="stroke:#181818;stroke-width:0.5;" x1="1028" x2="1439" y1="521.072" y2="521.072"/><text fill="#000000" font-family="sans-serif" font-size="14" lengthAdjust="spacing" textLength="401" x="1033" y="540.0379">Surfaces : GeometryCHLV03_V1_MultiSurface_Surfaces_TYPE</text><line style="stroke:#181818;stroke-width:0.5;" x1="1028" x2="1439" y1="548.1399" y2="548.1399"/></g><!--class LineStructure--><g id="elem_LineStructure"><rect codeLine="198" fill="#F1F1F1" height="67.0679" id="LineStructure" rx="2.5" ry="2.5" style="stroke:#181818;stroke-width:0.5;" width="223" x="2892.5" y="2020.072"/><ellipse cx="2954.25" cy="2036.072" fill="#ADD1B2" rx="11" ry="11" style="stroke:#181818;stroke-width:1.0;"/><path d="M2953.7188,2042.9939 Q2951.9688,2042.9939 2950.8281,2042.2595 Q2949.7031,2041.5095 2949.1406,2040.1657 Q2948.5938,2038.8064 2948.5938,2037.0095 Q2948.5938,2034.9782 2949.25,2033.5251 Q2949.9063,2032.072 2951.1875,2031.2907 Q2952.4688,2030.5095 2954.3438,2030.5095 Q2955.2344,2030.5095 2955.9063,2030.697 Q2956.5781,2030.8689 2957.2656,2031.2126 L2956.4531,2033.2282 Q2955.8281,2032.9157 2955.2813,2032.7907 Q2954.75,2032.6657 2954.2656,2032.6657 Q2953.0938,2032.6657 2952.3906,2033.197 Q2951.6875,2033.7282 2951.3906,2034.6814 Q2951.0938,2035.6345 2951.0938,2036.9001 Q2951.0938,2038.9157 2951.8125,2039.8845 Q2952.5313,2040.8376 2954.125,2040.8376 Q2954.7188,2040.8376 2955.3438,2040.6814 Q2955.9688,2040.5251 2956.7969,2040.1501 L2956.7969,2042.3689 Q2956.0625,2042.6814 2955.2656,2042.8376 Q2954.4844,2042.9939 2953.7188,2042.9939 Z " fill="#000000"/><text fill="#000000" font-family="sans-serif" font-size="14" lengthAdjust="spacing" textLength="91" x="2974.75" y="2041.504">LineStructure</text><line style="stroke:#181818;stroke-width:0.5;" x1="2893.5" x2="3114.5" y1="2052.072" y2="2052.072"/><text fill="#000000" font-family="sans-serif" font-size="14" lengthAdjust="spacing" textLength="211" x="2898.5" y="2071.0379">Line : GeometryCHLV95_V1_Line</text><line style="stroke:#181818;stroke-width:0.5;" x1="2893.5" x2="3114.5" y1="2079.1399" y2="2079.1399"/></g><!--class DirectedLineStructure--><g id="elem_DirectedLineStructure"><rect codeLine="202" fill="#F1F1F1" height="67.0679" id="DirectedLineStructure" rx="2.5" ry="2.5" style="stroke:#181818;stroke-width:0.5;" width="280" x="2864" y="1918.072"/><ellipse cx="2925.75" cy="1934.072" fill="#ADD1B2" rx="11" ry="11" style="stroke:#181818;stroke-width:1.0;"/><path d="M2925.2188,1940.9939 Q2923.4688,1940.9939 2922.3281,1940.2595 Q2921.2031,1939.5095 2920.6406,1938.1657 Q2920.0938,1936.8064 2920.0938,1935.0095 Q2920.0938,1932.9782 2920.75,1931.5251 Q2921.4063,1930.072 2922.6875,1929.2907 Q2923.9688,1928.5095 2925.8438,1928.5095 Q2926.7344,1928.5095 2927.4063,1928.697 Q2928.0781,1928.8689 2928.7656,1929.2126 L2927.9531,1931.2282 Q2927.3281,1930.9157 2926.7813,1930.7907 Q2926.25,1930.6657 2925.7656,1930.6657 Q2924.5938,1930.6657 2923.8906,1931.197 Q2923.1875,1931.7282 2922.8906,1932.6814 Q2922.5938,1933.6345 2922.5938,1934.9001 Q2922.5938,1936.9157 2923.3125,1937.8845 Q2924.0313,1938.8376 2925.625,1938.8376 Q2926.2188,1938.8376 2926.8438,1938.6814 Q2927.4688,1938.5251 2928.2969,1938.1501 L2928.2969,1940.3689 Q2927.5625,1940.6814 2926.7656,1940.8376 Q2925.9844,1940.9939 2925.2188,1940.9939 Z " fill="#000000"/><text fill="#000000" font-family="sans-serif" font-size="14" lengthAdjust="spacing" textLength="148" x="2946.25" y="1939.504">DirectedLineStructure</text><line style="stroke:#181818;stroke-width:0.5;" x1="2865" x2="3143" y1="1950.072" y2="1950.072"/><text fill="#000000" font-family="sans-serif" font-size="14" lengthAdjust="spacing" textLength="268" x="2870" y="1969.0379">Line : GeometryCHLV95_V1_DirectedLine</text><line style="stroke:#181818;stroke-width:0.5;" x1="2865" x2="3143" y1="1977.1399" y2="1977.1399"/></g><!--class MultiLine--><g id="elem_MultiLine"><rect codeLine="206" fill="#F1F1F1" height="67.0679" id="MultiLine" rx="2.5" ry="2.5" style="stroke:#181818;stroke-width:0.5;" width="344" x="2832" y="1816.072"/><ellipse cx="2968.25" cy="1832.072" fill="#ADD1B2" rx="11" ry="11" style="stroke:#181818;stroke-width:1.0;"/><path d="M2967.7188,1838.9939 Q2965.9688,1838.9939 2964.8281,1838.2595 Q2963.7031,1837.5095 2963.1406,1836.1657 Q2962.5938,1834.8064 2962.5938,1833.0095 Q2962.5938,1830.9782 2963.25,1829.5251 Q2963.9063,1828.072 2965.1875,1827.2907 Q2966.4688,1826.5095 2968.3438,1826.5095 Q2969.2344,1826.5095 2969.9063,1826.697 Q2970.5781,1826.8689 2971.2656,1827.2126 L2970.4531,1829.2282 Q2969.8281,1828.9157 2969.2813,1828.7907 Q2968.75,1828.6657 2968.2656,1828.6657 Q2967.0938,1828.6657 2966.3906,1829.197 Q2965.6875,1829.7282 2965.3906,1830.6814 Q2965.0938,1831.6345 2965.0938,1832.9001 Q2965.0938,1834.9157 2965.8125,1835.8845 Q2966.5313,1836.8376 2968.125,1836.8376 Q2968.7188,1836.8376 2969.3438,1836.6814 Q2969.9688,1836.5251 2970.7969,1836.1501 L2970.7969,1838.3689 Q2970.0625,1838.6814 2969.2656,1838.8376 Q2968.4844,1838.9939 2967.7188,1838.9939 Z " fill="#000000"/><text fill="#000000" font-family="sans-serif" font-size="14" lengthAdjust="spacing" textLength="63" x="2988.75" y="1837.504">MultiLine</text><line style="stroke:#181818;stroke-width:0.5;" x1="2833" x2="3175" y1="1848.072" y2="1848.072"/><text fill="#000000" font-family="sans-serif" font-size="14" lengthAdjust="spacing" textLength="332" x="2838" y="1867.0379">Lines : GeometryCHLV95_V1_MultiLine_Lines_TYPE</text><line style="stroke:#181818;stroke-width:0.5;" x1="2833" x2="3175" y1="1875.1399" y2="1875.1399"/></g><!--class MultiDirectedLine--><g id="elem_MultiDirectedLine"><rect codeLine="210" fill="#F1F1F1" height="67.0679" id="MultiDirectedLine" rx="2.5" ry="2.5" style="stroke:#181818;stroke-width:0.5;" width="401" x="3343" y="2020.072"/><ellipse cx="3479.25" cy="2036.072" fill="#ADD1B2" rx="11" ry="11" style="stroke:#181818;stroke-width:1.0;"/><path d="M3478.7188,2042.9939 Q3476.9688,2042.9939 3475.8281,2042.2595 Q3474.7031,2041.5095 3474.1406,2040.1657 Q3473.5938,2038.8064 3473.5938,2037.0095 Q3473.5938,2034.9782 3474.25,2033.5251 Q3474.9063,2032.072 3476.1875,2031.2907 Q3477.4688,2030.5095 3479.3438,2030.5095 Q3480.2344,2030.5095 3480.9063,2030.697 Q3481.5781,2030.8689 3482.2656,2031.2126 L3481.4531,2033.2282 Q3480.8281,2032.9157 3480.2813,2032.7907 Q3479.75,2032.6657 3479.2656,2032.6657 Q3478.0938,2032.6657 3477.3906,2033.197 Q3476.6875,2033.7282 3476.3906,2034.6814 Q3476.0938,2035.6345 3476.0938,2036.9001 Q3476.0938,2038.9157 3476.8125,2039.8845 Q3477.5313,2040.8376 3479.125,2040.8376 Q3479.7188,2040.8376 3480.3438,2040.6814 Q3480.9688,2040.5251 3481.7969,2040.1501 L3481.7969,2042.3689 Q3481.0625,2042.6814 3480.2656,2042.8376 Q3479.4844,2042.9939 3478.7188,2042.9939 Z " fill="#000000"/><text fill="#000000" font-family="sans-serif" font-size="14" lengthAdjust="spacing" textLength="120" x="3499.75" y="2041.504">MultiDirectedLine</text><line style="stroke:#181818;stroke-width:0.5;" x1="3344" x2="3743" y1="2052.072" y2="2052.072"/><text fill="#000000" font-family="sans-serif" font-size="14" lengthAdjust="spacing" textLength="389" x="3349" y="2071.0379">Lines : GeometryCHLV95_V1_MultiDirectedLine_Lines_TYPE</text><line style="stroke:#181818;stroke-width:0.5;" x1="3344" x2="3743" y1="2079.1399" y2="2079.1399"/></g><!--class SurfaceStructure--><g id="elem_SurfaceStructure"><rect codeLine="214" fill="#F1F1F1" height="67.0679" id="SurfaceStructure" rx="2.5" ry="2.5" style="stroke:#181818;stroke-width:0.5;" width="269" x="3409" y="1918.072"/><ellipse cx="3482.25" cy="1934.072" fill="#ADD1B2" rx="11" ry="11" style="stroke:#181818;stroke-width:1.0;"/><path d="M3481.7188,1940.9939 Q3479.9688,1940.9939 3478.8281,1940.2595 Q3477.7031,1939.5095 3477.1406,1938.1657 Q3476.5938,1936.8064 3476.5938,1935.0095 Q3476.5938,1932.9782 3477.25,1931.5251 Q3477.9063,1930.072 3479.1875,1929.2907 Q3480.4688,1928.5095 3482.3438,1928.5095 Q3483.2344,1928.5095 3483.9063,1928.697 Q3484.5781,1928.8689 3485.2656,1929.2126 L3484.4531,1931.2282 Q3483.8281,1930.9157 3483.2813,1930.7907 Q3482.75,1930.6657 3482.2656,1930.6657 Q3481.0938,1930.6657 3480.3906,1931.197 Q3479.6875,1931.7282 3479.3906,1932.6814 Q3479.0938,1933.6345 3479.0938,1934.9001 Q3479.0938,1936.9157 3479.8125,1937.8845 Q3480.5313,1938.8376 3482.125,1938.8376 Q3482.7188,1938.8376 3483.3438,1938.6814 Q3483.9688,1938.5251 3484.7969,1938.1501 L3484.7969,1940.3689 Q3484.0625,1940.6814 3483.2656,1940.8376 Q3482.4844,1940.9939 3481.7188,1940.9939 Z " fill="#000000"/><text fill="#000000" font-family="sans-serif" font-size="14" lengthAdjust="spacing" textLength="114" x="3502.75" y="1939.504">SurfaceStructure</text><line style="stroke:#181818;stroke-width:0.5;" x1="3410" x2="3677" y1="1950.072" y2="1950.072"/><text fill="#000000" font-family="sans-serif" font-size="14" lengthAdjust="spacing" textLength="257" x="3415" y="1969.0379">Surface : GeometryCHLV95_V1_Surface</text><line style="stroke:#181818;stroke-width:0.5;" x1="3410" x2="3677" y1="1977.1399" y2="1977.1399"/></g><!--class MultiSurface--><g id="elem_MultiSurface"><rect codeLine="218" fill="#F1F1F1" height="67.0679" id="MultiSurface" rx="2.5" ry="2.5" style="stroke:#181818;stroke-width:0.5;" width="413" x="3337" y="1816.072"/><ellipse cx="3496.25" cy="1832.072" fill="#ADD1B2" rx="11" ry="11" style="stroke:#181818;stroke-width:1.0;"/><path d="M3495.7188,1838.9939 Q3493.9688,1838.9939 3492.8281,1838.2595 Q3491.7031,1837.5095 3491.1406,1836.1657 Q3490.5938,1834.8064 3490.5938,1833.0095 Q3490.5938,1830.9782 3491.25,1829.5251 Q3491.9063,1828.072 3493.1875,1827.2907 Q3494.4688,1826.5095 3496.3438,1826.5095 Q3497.2344,1826.5095 3497.9063,1826.697 Q3498.5781,1826.8689 3499.2656,1827.2126 L3498.4531,1829.2282 Q3497.8281,1828.9157 3497.2813,1828.7907 Q3496.75,1828.6657 3496.2656,1828.6657 Q3495.0938,1828.6657 3494.3906,1829.197 Q3493.6875,1829.7282 3493.3906,1830.6814 Q3493.0938,1831.6345 3493.0938,1832.9001 Q3493.0938,1834.9157 3493.8125,1835.8845 Q3494.5313,1836.8376 3496.125,1836.8376 Q3496.7188,1836.8376 3497.3438,1836.6814 Q3497.9688,1836.5251 3498.7969,1836.1501 L3498.7969,1838.3689 Q3498.0625,1838.6814 3497.2656,1838.8376 Q3496.4844,1838.9939 3495.7188,1838.9939 Z " fill="#000000"/><text fill="#000000" font-family="sans-serif" font-size="14" lengthAdjust="spacing" textLength="86" x="3516.75" y="1837.504">MultiSurface</text><line style="stroke:#181818;stroke-width:0.5;" x1="3338" x2="3749" y1="1848.072" y2="1848.072"/><text fill="#000000" font-family="sans-serif" font-size="14" lengthAdjust="spacing" textLength="401" x="3343" y="1867.0379">Surfaces : GeometryCHLV95_V1_MultiSurface_Surfaces_TYPE</text><line style="stroke:#181818;stroke-width:0.5;" x1="3338" x2="3749" y1="1875.1399" y2="1875.1399"/></g><!--class Abbaustelle--><g id="elem_Abbaustelle"><rect codeLine="222" fill="#F1F1F1" height="295.8829" id="Abbaustelle" rx="2.5" ry="2.5" style="stroke:#181818;stroke-width:0.5;" width="921" x="46" y="90.662"/><ellipse cx="462.25" cy="106.662" fill="#ADD1B2" rx="11" ry="11" style="stroke:#181818;stroke-width:1.0;"/><path d="M461.7188,113.5839 Q459.9688,113.5839 458.8281,112.8495 Q457.7031,112.0995 457.1406,110.7557 Q456.5938,109.3964 456.5938,107.5995 Q456.5938,105.5682 457.25,104.1151 Q457.9063,102.662 459.1875,101.8807 Q460.4688,101.0995 462.3438,101.0995 Q463.2344,101.0995 463.9063,101.287 Q464.5781,101.4589 465.2656,101.8026 L464.4531,103.8182 Q463.8281,103.5057 463.2813,103.3807 Q462.75,103.2557 462.2656,103.2557 Q461.0938,103.2557 460.3906,103.787 Q459.6875,104.3182 459.3906,105.2714 Q459.0938,106.2245 459.0938,107.4901 Q459.0938,109.5057 459.8125,110.4745 Q460.5313,111.4276 462.125,111.4276 Q462.7188,111.4276 463.3438,111.2714 Q463.9688,111.1151 464.7969,110.7401 L464.7969,112.9589 Q464.0625,113.2714 463.2656,113.4276 Q462.4844,113.5839 461.7188,113.5839 Z " fill="#000000"/><text fill="#000000" font-family="sans-serif" font-size="14" lengthAdjust="spacing" textLength="80" x="482.75" y="112.094">Abbaustelle</text><line style="stroke:#181818;stroke-width:0.5;" x1="47" x2="966" y1="122.662" y2="122.662"/><text fill="#000000" font-family="sans-serif" font-size="14" lengthAdjust="spacing" textLength="619" x="52" y="141.6279">MPoly : SO_AFU_ABBAUSTELLEN_Publikation_20221103_Abbaustelle_Abbaustelle_MPoly_TYPE</text><text fill="#000000" font-family="sans-serif" font-size="14" lengthAdjust="spacing" textLength="715" x="52" y="160.6958">Bezeichnung : SO_AFU_ABBAUSTELLEN_Publikation_20221103_Abbaustelle_Abbaustelle_Bezeichnung_TYPE</text><text fill="#000000" font-family="sans-serif" font-size="14" lengthAdjust="spacing" textLength="731" x="52" y="179.7638">Aktennummer : SO_AFU_ABBAUSTELLEN_Publikation_20221103_Abbaustelle_Abbaustelle_Aktennummer_TYPE</text><text fill="#000000" font-family="sans-serif" font-size="14" lengthAdjust="spacing" textLength="769" x="52" y="198.8317">Gemeinde_Name : SO_AFU_ABBAUSTELLEN_Publikation_20221103_Abbaustelle_Abbaustelle_Gemeinde_Name_TYPE</text><text fill="#000000" font-family="sans-serif" font-size="14" lengthAdjust="spacing" textLength="731" x="52" y="217.8996">Gemeinde_Bfs : SO_AFU_ABBAUSTELLEN_Publikation_20221103_Abbaustelle_Abbaustelle_Gemeinde_Bfs_TYPE</text><text fill="#000000" font-family="sans-serif" font-size="14" lengthAdjust="spacing" textLength="495" x="52" y="236.9675">Art : SO_AFU_ABBAUSTELLEN_Publikation_20221103_Abbaustelle_Art_Code</text><text fill="#000000" font-family="sans-serif" font-size="14" lengthAdjust="spacing" textLength="533" x="52" y="256.0354">Stand : SO_AFU_ABBAUSTELLEN_Publikation_20221103_Abbaustelle_Stand_Code</text><text fill="#000000" font-family="sans-serif" font-size="14" lengthAdjust="spacing" textLength="605" x="52" y="275.1033">Rohstoffart : SO_AFU_ABBAUSTELLEN_Publikation_20221103_Abbaustelle_Rohstoffart_Code</text><text fill="#000000" font-family="sans-serif" font-size="14" lengthAdjust="spacing" textLength="909" x="52" y="294.1713">GestaltungsplanVorhanden : SO_AFU_ABBAUSTELLEN_Publikation_20221103_Abbaustelle_Abbaustelle_GestaltungsplanVorhanden_TYPE</text><text fill="#000000" font-family="sans-serif" font-size="14" lengthAdjust="spacing" textLength="783" x="52" y="313.2392">Richtplannummer : SO_AFU_ABBAUSTELLEN_Publikation_20221103_Abbaustelle_Abbaustelle_Richtplannummer_TYPE</text><text fill="#000000" font-family="sans-serif" font-size="14" lengthAdjust="spacing" textLength="661" x="52" y="332.3071">StandRichtplan : SO_AFU_ABBAUSTELLEN_Publikation_20221103_Abbaustelle_StandRichtplan_Code</text><text fill="#000000" font-family="sans-serif" font-size="14" lengthAdjust="spacing" textLength="639" x="52" y="351.375">RRB_Nr : SO_AFU_ABBAUSTELLEN_Publikation_20221103_Abbaustelle_Abbaustelle_RRB_Nr_TYPE</text><text fill="#000000" font-family="sans-serif" font-size="14" lengthAdjust="spacing" textLength="216" x="52" y="370.4429">RRB_Datum : INTERLIS_XMLDate</text><line style="stroke:#181818;stroke-width:0.5;" x1="47" x2="966" y1="378.5449" y2="378.5449"/></g><!--reverse link REFSYSTEM to COORDSYSTEM--><g id="link_REFSYSTEM_COORDSYSTEM"><path codeLine="27" d="M575.3383,1800.5392 C683.0683,1802.0192 923.16,1805.332 1087.21,1807.602 " fill="none" id="REFSYSTEM-backto-COORDSYSTEM" style="stroke:#181818;stroke-width:1.0;"/><polygon fill="none" points="557.34,1800.292,575.2559,1806.5387,575.4207,1794.5398,557.34,1800.292" style="stroke:#181818;stroke-width:1.0;"/></g><!--reverse link GregorianDate to GregorianDateTime--><g id="link_GregorianDate_GregorianDateTime"><path codeLine="61" d="M685.96,1994.602 C796.9,1994.602 926.95,1994.602 1043.6,1994.602 " fill="none" id="GregorianDate-backto-GregorianDateTime" style="stroke:#181818;stroke-width:1.0;"/><polygon fill="none" points="667.96,1994.602,685.96,2000.602,685.96,1988.602,667.96,1994.602" style="stroke:#181818;stroke-width:1.0;"/></g><!--reverse link REFSYSTEM to Ellipsoid--><g id="link_REFSYSTEM_Ellipsoid"><path codeLine="101" d="M536.4517,1760.7533 C624.2117,1644.4433 1009.24,1160.662 1472,992.602 C1692.16,912.652 1770.6,940.702 1999,992.602 C2321.96,1065.982 2414.33,1105.312 2671,1314.602 C2705.17,1342.462 2694.66,1368.632 2731,1393.602 C2739.62,1399.522 2748.67,1405.002 2758.04,1410.072 " fill="none" id="REFSYSTEM-backto-Ellipsoid" style="stroke:#181818;stroke-width:1.0;"/><polygon fill="none" points="525.61,1775.122,541.2412,1764.3672,531.6621,1757.1394,525.61,1775.122" style="stroke:#181818;stroke-width:1.0;"/></g><!--reverse link REFSYSTEM to GravityModel--><g id="link_REFSYSTEM_GravityModel"><path codeLine="107" d="M521.0374,1758.2608 C557.9174,1647.9508 719.97,1207.242 1027,996.602 C1629.56,583.222 1984.19,768.112 2671,1017.602 C2773.28,1054.752 2879.91,1123.242 2943.89,1168.102 " fill="none" id="REFSYSTEM-backto-GravityModel" style="stroke:#181818;stroke-width:1.0;"/><polygon fill="none" points="515.33,1775.332,526.7278,1760.1633,515.347,1756.3583,515.33,1775.332" style="stroke:#181818;stroke-width:1.0;"/></g><!--reverse link REFSYSTEM to GeoidModel--><g id="link_REFSYSTEM_GeoidModel"><path codeLine="113" d="M526.4656,1759.149 C573.5656,1660.189 757.59,1298.422 1027,1099.602 C1195.75,975.072 1265.29,978.002 1472,942.602 C1702.87,903.072 1767.07,909.952 1999,942.602 C2306.71,985.912 2437.15,930.972 2671,1135.602 C2721.03,1179.372 2679.63,1230.412 2731,1272.602 C2738.38,1278.662 2746.25,1284.142 2754.47,1289.102 " fill="none" id="REFSYSTEM-backto-GeoidModel" style="stroke:#181818;stroke-width:1.0;"/><polygon fill="none" points="518.73,1775.402,531.8833,1761.7275,521.0479,1756.5704,518.73,1775.402" style="stroke:#181818;stroke-width:1.0;"/></g><!--reverse link AXIS to LengthAXIS--><g id="link_AXIS_LengthAXIS"><path codeLine="119" d="M555.3648,1896.1676 C642.8548,1919.6476 879.84,1968.512 1015,1841.602 C1042.18,1816.092 1007.43,1790.322 1027,1758.602 C1153.6,1553.482 1250.7,1544.122 1472,1448.602 C1488.68,1441.402 1506.29,1435.042 1524.25,1429.432 " fill="none" id="AXIS-backto-LengthAXIS" style="stroke:#181818;stroke-width:1.0;"/><polygon fill="none" points="537.98,1891.502,553.8096,1901.9625,556.92,1890.3727,537.98,1891.502" style="stroke:#181818;stroke-width:1.0;"/></g><!--reverse link AXIS to AngleAXIS--><g id="link_AXIS_AngleAXIS"><path codeLine="125" d="M555.9503,1886.429 C655.3003,1893.829 949.14,1909.792 1015,1841.602 C1035.17,1820.722 1011.83,1605.352 1027,1580.602 C1132.49,1408.512 1355.88,1330.902 1528.22,1295.982 " fill="none" id="AXIS-backto-AngleAXIS" style="stroke:#181818;stroke-width:1.0;"/><polygon fill="none" points="538,1885.092,555.5046,1892.4124,556.3959,1880.4456,538,1885.092" style="stroke:#181818;stroke-width:1.0;"/></g><!--reverse link COORDSYSTEM to GeoCartesian1D--><g id="link_COORDSYSTEM_GeoCartesian1D"><path codeLine="130" d="M1314.0209,1767.6652 C1360.9909,1743.8252 1411.07,1720.802 1472,1700.602 C1503.14,1690.282 1536.77,1681.292 1569.67,1673.612 " fill="none" id="COORDSYSTEM-backto-GeoCartesian1D" style="stroke:#181818;stroke-width:1.0;"/><polygon fill="none" points="1297.97,1775.812,1316.7365,1773.0155,1311.3053,1762.3149,1297.97,1775.812" style="stroke:#181818;stroke-width:1.0;"/></g><!--reverse link GeoCartesian1D to GeoHeight--><g id="link_GeoCartesian1D_GeoHeight"><path codeLine="137" d="M1966.434,1600.5756 C1983.524,1595.6056 1983.09,1594.992 1999,1588.602 C2028.08,1576.932 2031.56,1566.722 2059,1551.602 C2120.56,1517.692 2190.95,1483.042 2248.59,1455.702 " fill="none" id="GeoCartesian1D-backto-GeoHeight" style="stroke:#181818;stroke-width:1.0;"/><polygon fill="none" points="1949.15,1605.602,1968.1094,1606.3369,1964.7585,1594.8143,1949.15,1605.602" style="stroke:#181818;stroke-width:1.0;"/></g><!--link GeoHeight to Ellipsoid--><g id="link_GeoHeight_Ellipsoid"><path codeLine="139" d="M2671.44,1436.162 C2693.64,1438.602 2715.91,1441.052 2737.84,1443.462 " fill="none" id="GeoHeight-Ellipsoid" style="stroke:#181818;stroke-width:1.0;"/><text fill="#000000" font-family="sans-serif" font-size="13" lengthAdjust="spacing" textLength="20" x="2678.8566" y="1451.053">0..*</text><text fill="#000000" font-family="sans-serif" font-size="13" lengthAdjust="spacing" textLength="7" x="2722.8345" y="1456.7568">1</text></g><!--link GeoHeight to GravityModel--><g id="link_GeoHeight_GravityModel"><path codeLine="141" d="M2500.72,1349.602 C2569.04,1323.932 2653.7,1293.902 2731,1271.602 C2750.98,1265.842 2771.92,1260.322 2792.94,1255.122 " fill="none" id="GeoHeight-GravityModel" style="stroke:#181818;stroke-width:1.0;"/><text fill="#000000" font-family="sans-serif" font-size="13" lengthAdjust="spacing" textLength="20" x="2497.6136" y="1338.2821">0..*</text><text fill="#000000" font-family="sans-serif" font-size="13" lengthAdjust="spacing" textLength="7" x="2754.4265" y="1276.7116">1</text></g><!--link GeoHeight to GeoidModel--><g id="link_GeoHeight_GeoidModel"><path codeLine="143" d="M2671.44,1369.042 C2695.23,1366.422 2719.12,1363.802 2742.57,1361.222 " fill="none" id="GeoHeight-GeoidModel" style="stroke:#181818;stroke-width:1.0;"/><text fill="#000000" font-family="sans-serif" font-size="13" lengthAdjust="spacing" textLength="20" x="2678.8566" y="1382.3599">0..*</text><text fill="#000000" font-family="sans-serif" font-size="13" lengthAdjust="spacing" textLength="7" x="2727.7049" y="1376.2315">1</text></g><!--reverse link COORDSYSTEM to GeoCartesian2D--><g id="link_COORDSYSTEM_GeoCartesian2D"><path codeLine="149" d="M1374.9526,1850.7338 C1415.3926,1868.2138 1439.61,1886.902 1464,1924.602 C1475.42,1942.252 1456.84,2099.042 1472,2113.602 C1483.08,2124.242 2659.86,2123.822 2671,2114.602 C2780.8,2023.742 2650.35,1917.102 2731,1799.602 C2769.86,1742.992 2834.53,1701.672 2891.06,1674.062 " fill="none" id="COORDSYSTEM-backto-GeoCartesian2D" style="stroke:#181818;stroke-width:1.0;"/><polygon fill="none" points="1358.43,1843.592,1372.572,1856.2413,1377.3332,1845.2263,1358.43,1843.592" style="stroke:#181818;stroke-width:1.0;"/></g><!--reverse link COORDSYSTEM to GeoCartesian3D--><g id="link_COORDSYSTEM_GeoCartesian3D"><path codeLine="155" d="M1331.477,1767.5671 C1382.797,1741.6471 1429.7,1708.862 1464,1652.602 C1478.93,1628.132 1452.62,1609.722 1472,1588.602 C1485.59,1573.802 1501.8,1562.122 1519.51,1552.942 " fill="none" id="COORDSYSTEM-backto-GeoCartesian3D" style="stroke:#181818;stroke-width:1.0;"/><polygon fill="none" points="1315.41,1775.682,1334.182,1772.9227,1328.772,1762.2114,1315.41,1775.682" style="stroke:#181818;stroke-width:1.0;"/></g><!--reverse link COORDSYSTEM to GeoEllipsoidal--><g id="link_COORDSYSTEM_GeoEllipsoidal"><path codeLine="161" d="M1397.5762,1775.141 C1427.9362,1769.121 1442.14,1766.622 1472,1761.602 C1705.07,1722.392 1765.26,1725.552 1999,1690.602 C2042.03,1684.172 2087.85,1676.942 2131.97,1669.782 " fill="none" id="COORDSYSTEM-backto-GeoEllipsoidal" style="stroke:#181818;stroke-width:1.0;"/><polygon fill="none" points="1379.92,1778.642,1398.7432,1781.0264,1396.4092,1769.2556,1379.92,1778.642" style="stroke:#181818;stroke-width:1.0;"/></g><!--link GeoEllipsoidal to Ellipsoid--><g id="link_GeoEllipsoidal_Ellipsoid"><path codeLine="163" d="M2541.33,1587.112 C2605.97,1571.082 2680.53,1552.582 2750.63,1535.202 " fill="none" id="GeoEllipsoidal-Ellipsoid" style="stroke:#181818;stroke-width:1.0;"/><text fill="#000000" font-family="sans-serif" font-size="13" lengthAdjust="spacing" textLength="20" x="2547.8388" y="1575.7797">0..*</text><text fill="#000000" font-family="sans-serif" font-size="13" lengthAdjust="spacing" textLength="7" x="2723.1607" y="1554.7932">1</text></g><!--link GeoCartesian2D to GeoCartesian2D--><g id="link_GeoCartesian2D_GeoCartesian2D"><path codeLine="165" d="M2904.06,1587.252 C2895.88,1568.552 2929.19,1552.532 3004,1552.532 C3078.82,1552.532 3112.13,1568.552 3103.95,1587.252 " fill="none" id="GeoCartesian2D-GeoCartesian2D" style="stroke:#181818;stroke-width:1.0;"/><text fill="#000000" font-family="sans-serif" font-size="13" lengthAdjust="spacing" textLength="20" x="2865.8512" y="1575.6202">0..*</text><text fill="#000000" font-family="sans-serif" font-size="13" lengthAdjust="spacing" textLength="20" x="3098.848" y="1575.6202">0..*</text></g><!--link GeoCartesian3D to GeoCartesian3D--><g id="link_GeoCartesian3D_GeoCartesian3D"><path codeLine="167" d="M1662.06,1484.252 C1654.08,1465.552 1686.56,1449.532 1759.5,1449.532 C1832.45,1449.532 1864.93,1465.552 1856.95,1484.252 " fill="none" id="GeoCartesian3D-GeoCartesian3D" style="stroke:#181818;stroke-width:1.0;"/><text fill="#000000" font-family="sans-serif" font-size="13" lengthAdjust="spacing" textLength="20" x="1624.2653" y="1472.6202">0..*</text><text fill="#000000" font-family="sans-serif" font-size="13" lengthAdjust="spacing" textLength="20" x="1851.4339" y="1472.6202">0..*</text></g><!--link GeoEllipsoidal to GeoEllipsoidal--><g id="link_GeoEllipsoidal_GeoEllipsoidal"><path codeLine="169" d="M2252.83,1587.252 C2243.65,1568.552 2281.04,1552.532 2365,1552.532 C2448.97,1552.532 2486.36,1568.552 2477.18,1587.252 " fill="none" id="GeoEllipsoidal-GeoEllipsoidal" style="stroke:#181818;stroke-width:1.0;"/><text fill="#000000" font-family="sans-serif" font-size="13" lengthAdjust="spacing" textLength="20" x="2212.5956" y="1575.6202">0..*</text><text fill="#000000" font-family="sans-serif" font-size="13" lengthAdjust="spacing" textLength="20" x="2474.1036" y="1575.6202">0..*</text></g><!--link GeoEllipsoidal to GeoCartesian2D--><g id="link_GeoEllipsoidal_GeoCartesian2D"><path codeLine="171" d="M2598.23,1630.602 C2652.28,1630.602 2709.91,1630.602 2764.23,1630.602 " fill="none" id="GeoEllipsoidal-GeoCartesian2D" style="stroke:#181818;stroke-width:1.0;"/><text fill="#000000" font-family="sans-serif" font-size="13" lengthAdjust="spacing" textLength="20" x="2606.211" y="1644.7896">0..*</text><text fill="#000000" font-family="sans-serif" font-size="13" lengthAdjust="spacing" textLength="20" x="2736.815" y="1644.7619">0..*</text></g><!--link GeoHeight to GeoHeight--><g id="link_GeoHeight_GeoHeight"><path codeLine="173" d="M2251.58,1349.572 C2249.14,1330.532 2286.95,1315.002 2365,1315.002 C2443.06,1315.002 2480.86,1330.532 2478.42,1349.572 " fill="none" id="GeoHeight-GeoHeight" style="stroke:#181818;stroke-width:1.0;"/><text fill="#000000" font-family="sans-serif" font-size="13" lengthAdjust="spacing" textLength="20" x="2214.9954" y="1338.2481">0..*</text><text fill="#000000" font-family="sans-serif" font-size="13" lengthAdjust="spacing" textLength="20" x="2472.3171" y="1338.2481">0..*</text></g><!--SRC=[lLbDR-Cs4BtdLnWv5bWZiT53YrvaMt5So7PWAS7cH33Ms6PNfWAAMZJTzhzNNvOfaROeIjcS577UUvmtGqgY0zZn0Gy7ZEmFVE0J1bjEGdgp3N0K3HOhpzuu2tTehLwdZkMwFsu6mb_vpt_bbOnplStpr7lUs8rO_1PnXhUyJhAqFMiz-TEUUbMA5Jx2uFSo3ftZK3g4lDSdkxicyZRModKiRx5UQUiBc0jpIUykw0H7u62wZ_5UbweAqagoNfIl2zUu61lxmKrgQY-D6QRhzMQcuh3-9f5eWX28qZ6jNEM93lxuzyiNfNpZLDsfvNJCrbtCLsrNZRTOshbiCbtBiLSpQzE58xrUFyoir-I6SI8UES9wDyCVLOR7C6QLgfLnA1kIYxOaDEPm0LCCoYWNjY7rBw2AGPF5yEnDsrexPx0F6S5qXZbKmQ-0cJZ5CZGTgBeGKdvGXgQiA1kMyqcIlOn9dJ1me4AIUjfGO2c-HQ5bR9k2o-WsXLSdNDiT98d6TU4G2YxiZq3vZre2sKsR-ayXeLnC9CLCmv3vBKlbSiouKam7ot3wa3U4MsnhAXop7Tw2xUzhdJM7y0YSLJfQ24QdSRcwgNyMvzM-5A5bWCc2A8WcOKnzp6hxNSgiaZr5Pz96iYdmbBAoaw9w2vK6dG9Qo6Rjvtv4GulkWsJlM2QPL5Ldi6UGvNgAHK8iAeQlBNibJcF1At7jz_WonUmY-eYyy9riXtOGaFSe97urtVAs5H1ScKK5ZieuL4Me4ZgI9VuhPCMBJIDX1I3pBUXtO14y19Xpe8JkTJWbaCoxWIDctxHcM8HsUXDhAejU5USCVoVyOndw4DIsbNAaeP8Y1QgX58zUs15AqeyZJSOpu3Fi4gKq7OF4N9LVnVqcjqeugY0CdJgpVR9FfP2UImxGFJ_8dqZk8MIy-EAxaDCPYifebJlHbf7tw_O8L49yEtzIz5LhpY9wrcIxiP4p9RApCMUcp_EbrD1ULzFajGoYvAtnVgRyfBsy20IamJUky2tRj0W48Usq7Y5zOQnL-oFYSBoQKmv3UQJgSRC31dGBUPmELGtIo9drXW5nXjCgWPRHJJN9HMyacIR4uFPkEFpbTf2GtzxVwZrGUoQN7ZzzyrUtRUq5E39UWADB2r3pSIOIcJxIJDRpQDP-cneRkpJkowNnptLfhEzIkMvmqD8b0TdD9P7e9xWaoBNPZ0JO9-r8GfEB2lcL_jfeepGsKnfhArrmhKcfNgFFKp9mJzxPcqI4Hr- -7azd6TD7v-LkZ5xkyuCrpk8jZnd8Xp390f8msQc8tk60h3VBVlm2tqHNn9hgB-E0avH0VU0aYvQ0rcTE5yJ5B5fDGWJsC9dYIEr24OfHvMoAiKuk51nAqIiU516dAPWwyDklxNi_mnZsVgvdrlkvRhVUp_LRz7uksa_l2-BjUb-OH6-zdq_6fFVpsHZtlk12czuNFEZG- -uQMG_Fo9fChEVaNSLnx1LwYjy2yWrdxpoZkz7e_lvkFBJUtd2SV5460OZNrQakdy8W_Jr1bnK9J9NhZ4XEOmB_0DaUQ9mTldPM4UXaBUiR1qhZun5O7re2dQmrXoCGwWCgpd4wgrK8h-XDTb6lSWcVmad6ZKKOJrxF_UggSZcclYbZ1fOvD-4Xuk5kXytdAb38_7E8E0vuqcdHUu3fIyWEoJo0zkE-cbjnJfDqEqzZ-klh6gNYPvZKy3AgKzbA5aNzDXEqwYUXZ4dXNN9_Xdby57y6_Bfqqb-gc_RQc_y1]--></g></svg>